\<svg xmlns="http://www.w3.org/2000/svg" width="25" height="21.095" viewBox="0 0 25 21.095"><defs><style>.a{fill:#70C1ED;}</style></defs><path class="a" d="M6.817,32.143a.586.586,0,0,0-.83,0L2.878,35.234,1.77,34.154a.586.586,0,0,0-.83,0l-.767.768a.586.586,0,0,0,0,.83L2.5,38.066a.624.624,0,0,0,.86,0l.761-.763,3.525-3.525a.59.59,0,0,0,0-.83Zm0,7.773a.586.586,0,0,0-.83,0L2.878,43.027,1.77,41.948a.586.586,0,0,0-.83,0l-.767.766a.586.586,0,0,0,0,.83l2.318,2.319a.624.624,0,0,0,.859,0l.767-.766,3.525-3.526a.586.586,0,0,0,0-.825ZM3.126,48.378a2.344,2.344,0,1,0,0,4.688,2.344,2.344,0,1,0,0-4.688Zm21.094.781H10.157a.781.781,0,0,0-.781.781V51.5a.781.781,0,0,0,.781.781H24.219A.781.781,0,0,0,25,51.5V49.941A.781.781,0,0,0,24.219,49.159Zm0-15.625H10.157a.781.781,0,0,0-.781.781v1.563a.781.781,0,0,0,.781.781H24.219A.781.781,0,0,0,25,35.878V34.316A.781.781,0,0,0,24.219,33.534Zm0,7.813H10.157a.781.781,0,0,0-.781.781v1.563a.781.781,0,0,0,.781.781H24.219A.781.781,0,0,0,25,43.691V42.128A.781.781,0,0,0,24.219,41.347Z" transform="translate(-0.001 -31.971)"/></svg>