<svg xmlns="http://www.w3.org/2000/svg" width="20" height="15" viewBox="0 0 20 15"><defs><style>.a{fill:#fff;}</style></defs><path class="a" d="M10.5,8.5A2.5,2.5,0,1,1,8,6a2.5,2.5,0,0,1,2.5,2.5Z" transform="translate(2 -0.286)"/><path class="a" d="M2.5,4.5A2.5,2.5,0,0,0,0,7v7.5A2.5,2.5,0,0,0,2.5,17h15A2.5,2.5,0,0,0,20,14.5V7a2.5,2.5,0,0,0-2.5-2.5H16.035a2.5,2.5,0,0,1-1.767-.732L13.232,2.733A2.5,2.5,0,0,0,11.465,2H8.535a2.5,2.5,0,0,0-1.767.732L5.733,3.767A2.5,2.5,0,0,1,3.965,4.5ZM3.125,7a.625.625,0,1,1,.625-.625A.625.625,0,0,1,3.125,7Zm11.25,3.125A4.375,4.375,0,1,1,10,5.75,4.375,4.375,0,0,1,14.375,10.125Z" transform="translate(0 -2)"/></svg>