<svg xmlns="http://www.w3.org/2000/svg" width="17.43" height="23.24" viewBox="0 0 17.43 23.24"><defs><style>.a{fill:#cacaca;}</style></defs><path class="a" d="M13.528,9.726l-.555-5.368h1.916a1.089,1.089,0,0,0,1.089-1.089V1.089A1.089,1.089,0,0,0,14.888,0H2.542A1.089,1.089,0,0,0,1.453,1.089V3.268A1.089,1.089,0,0,0,2.542,4.358H4.458L3.9,9.726C1.7,10.749,0,12.585,0,14.888a1.089,1.089,0,0,0,1.089,1.089H7.263V20.7a.363.363,0,0,0,.038.162L8.39,23.04a.363.363,0,0,0,.65,0l1.089-2.179a.363.363,0,0,0,.038-.162V15.978h6.173a1.089,1.089,0,0,0,1.089-1.089C17.43,12.565,15.706,10.739,13.528,9.726Z"/></svg>