<svg xmlns="http://www.w3.org/2000/svg" width="15.932" height="18.416" viewBox="0 0 15.932 18.416"><defs><style>.a{fill:#cacaca;}</style></defs><path class="a" d="M9.533,11.285a.323.323,0,0,1,0-.357l6.326-9.78a.323.323,0,0,0-.1-.446.283.283,0,0,0-.084-.039L13.359.011a.323.323,0,0,0-.372.136L7.492,8.3a.323.323,0,0,1-.553,0L4.579,4.953a.323.323,0,0,0-.373-.136l-2.36.658a.323.323,0,0,0-.226.4.341.341,0,0,0,.05.1l3.071,4.5a.323.323,0,0,1,0,.367L.039,17.9a.323.323,0,0,0,.076.451.333.333,0,0,0,.191.06H3.081a.323.323,0,0,0,.275-.147l3.415-4.818a.323.323,0,0,1,.446-.1.344.344,0,0,1,.108.113l1.94,2.809a.323.323,0,0,0,.28.162h2.748a.323.323,0,0,0,.276-.508Z" transform="translate(0.021 0.005)"/></svg>