<svg xmlns="http://www.w3.org/2000/svg" width="55" height="55" viewBox="0 0 55 55"><defs><style>.a{fill:#cacaca;}</style></defs><path class="a" d="M27.5,51.563A24.063,24.063,0,1,1,51.563,27.5,24.063,24.063,0,0,1,27.5,51.563ZM27.5,55A27.5,27.5,0,1,0,0,27.5,27.5,27.5,0,0,0,27.5,55Z"/><path class="a" d="M4,26.953a1.86,1.86,0,0,0,1.683,2H29.249a1.86,1.86,0,0,0,1.683-2,1.86,1.86,0,0,0-1.683-2H5.683A1.86,1.86,0,0,0,4,26.953ZM14.1,10.987C14.1,7.682,12.591,5,10.733,5S7.367,7.682,7.367,10.987s1.508,5.987,3.367,5.987S14.1,14.292,14.1,10.987Zm13.466,0C27.566,7.682,26.058,5,24.2,5s-3.367,2.682-3.367,5.987,1.508,5.987,3.367,5.987S27.566,14.292,27.566,10.987Z" transform="translate(10.034 10.525)"/></svg>