<svg xmlns="http://www.w3.org/2000/svg" width="40" height="40" viewBox="0 0 40 40"><defs><style>.a,.d{fill:none;}.a{stroke:#70c1ed;stroke-width:3px;}.b{fill:#70c1ed;}.c{stroke:none;}</style></defs><g class="a"><rect class="c" width="40" height="40" rx="20"/><rect class="d" x="1.5" y="1.5" width="37" height="37" rx="18.5"/></g><path class="b" d="M14.477,38.125H9.466V33.114A1.114,1.114,0,0,0,8.352,32H7.239a1.114,1.114,0,0,0-1.114,1.114v5.011H1.114A1.114,1.114,0,0,0,0,39.239v1.114a1.114,1.114,0,0,0,1.114,1.114H6.125v5.011a1.114,1.114,0,0,0,1.114,1.114H8.352a1.114,1.114,0,0,0,1.114-1.114V41.466h5.011a1.114,1.114,0,0,0,1.114-1.114V39.239A1.114,1.114,0,0,0,14.477,38.125Z" transform="translate(12.205 -19.795)"/></svg>