<svg xmlns="http://www.w3.org/2000/svg" width="22.349" height="22.349" viewBox="0 0 22.349 22.349"><defs><style>.a{fill:#70C1ED;}</style></defs><path class="a" d="M22.049.833A.754.754,0,0,0,21.516.3a15.832,15.832,0,0,0-3.6-.3c-4.506,0-7.208,2.41-9.226,5.587H4.14A2.3,2.3,0,0,0,2.268,6.743L.11,11.057a1.24,1.24,0,0,0-.11.467,1.048,1.048,0,0,0,1.048,1.048H5.579l-.981.981a1.422,1.422,0,0,0,0,1.975L6.82,17.75a1.424,1.424,0,0,0,1.976,0l.981-.981V21.3a1.048,1.048,0,0,0,1.048,1.048,1.247,1.247,0,0,0,.467-.11l4.31-2.156a2.288,2.288,0,0,0,1.157-1.871V13.654c3.169-2.022,5.589-4.732,5.589-9.214A15.494,15.494,0,0,0,22.049.833Zm-5.285,6.5A1.746,1.746,0,1,1,18.51,5.587a1.746,1.746,0,0,1-1.746,1.746Z"/></svg>