<svg xmlns="http://www.w3.org/2000/svg" width="92.487" height="69.482" viewBox="0 0 92.487 69.482">
  <g id="Group_2060" data-name="Group 2060" transform="translate(-220.005 -176.27)">
    <circle id="Ellipse_475" data-name="Ellipse 475" cx="33.759" cy="33.759" r="33.759" transform="translate(220.005 176.27)" fill="#63c6ff" opacity="0.2"/>
    <g id="Group_2052" data-name="Group 2052" transform="translate(221.086 177.52)">
      <circle id="Ellipse_476" data-name="Ellipse 476" cx="2.303" cy="2.303" r="2.303" transform="translate(45.304 0)" fill="none" stroke="#63c6ff" stroke-linecap="round" stroke-linejoin="round" stroke-width="1"/>
      <circle id="Ellipse_477" data-name="Ellipse 477" cx="2.32" cy="2.32" r="2.32" transform="translate(0 40.757)" fill="none" stroke="#63c6ff" stroke-linecap="round" stroke-linejoin="round" stroke-width="1"/>
      <path id="Path_1163" data-name="Path 1163" d="M247.627,197.628l-2.781,1.606-2.781,1.606v-6.422l2.781,1.606Z" transform="translate(-235.376 -189.275)" fill="none" stroke="#63c6ff" stroke-linecap="round" stroke-linejoin="round" stroke-width="1"/>
      <path id="Path_1164" data-name="Path 1164" d="M288.032,280.93l-1.179-2.043-1.179-2.043h4.717l-1.179,2.043Z" transform="translate(-263.623 -242.667)" fill="none" stroke="#63c6ff" stroke-linecap="round" stroke-linejoin="round" stroke-width="1"/>
      <g id="Group_2047" data-name="Group 2047" transform="translate(83.08 13.911)">
        <g id="Group_2045" data-name="Group 2045">
          <rect id="Rectangle_2561" data-name="Rectangle 2561" width="1.102" height="1.102" rx="0.551" fill="none" stroke="#63c6ff" stroke-linecap="round" stroke-linejoin="round" stroke-width="1"/>
          <rect id="Rectangle_2562" data-name="Rectangle 2562" width="1.102" height="1.102" rx="0.551" transform="translate(3.794)" fill="none" stroke="#63c6ff" stroke-linecap="round" stroke-linejoin="round" stroke-width="1"/>
        </g>
        <g id="Group_2046" data-name="Group 2046" transform="translate(0 3.612)">
          <rect id="Rectangle_2563" data-name="Rectangle 2563" width="1.102" height="1.102" rx="0.551" fill="none" stroke="#63c6ff" stroke-linecap="round" stroke-linejoin="round" stroke-width="1"/>
          <rect id="Rectangle_2564" data-name="Rectangle 2564" width="1.102" height="1.102" rx="0.551" transform="translate(3.794)" fill="none" stroke="#63c6ff" stroke-linecap="round" stroke-linejoin="round" stroke-width="1"/>
        </g>
      </g>
      <g id="Group_2050" data-name="Group 2050" transform="translate(19.86 56.361)">
        <g id="Group_2048" data-name="Group 2048">
          <rect id="Rectangle_2565" data-name="Rectangle 2565" width="0.854" height="0.854" rx="0.427" fill="none" stroke="#63c6ff" stroke-linecap="round" stroke-linejoin="round" stroke-width="1"/>
          <rect id="Rectangle_2566" data-name="Rectangle 2566" width="0.854" height="0.854" rx="0.427" transform="translate(2.94)" fill="none" stroke="#63c6ff" stroke-linecap="round" stroke-linejoin="round" stroke-width="1"/>
        </g>
        <g id="Group_2049" data-name="Group 2049" transform="translate(0 2.799)">
          <rect id="Rectangle_2567" data-name="Rectangle 2567" width="0.854" height="0.854" rx="0.427" fill="none" stroke="#63c6ff" stroke-linecap="round" stroke-linejoin="round" stroke-width="1"/>
          <rect id="Rectangle_2568" data-name="Rectangle 2568" width="0.854" height="0.854" rx="0.427" transform="translate(2.94)" fill="none" stroke="#63c6ff" stroke-linecap="round" stroke-linejoin="round" stroke-width="1"/>
        </g>
      </g>
      <g id="Group_2051" data-name="Group 2051" transform="translate(24.409 11.314)">
        <line id="Line_197" data-name="Line 197" y2="5.195" transform="translate(2.598)" fill="none" stroke="#63c6ff" stroke-linecap="round" stroke-linejoin="round" stroke-width="1"/>
        <line id="Line_198" data-name="Line 198" x1="5.195" transform="translate(0 2.598)" fill="none" stroke="#63c6ff" stroke-linecap="round" stroke-linejoin="round" stroke-width="1"/>
      </g>
      <path id="Path_1165" data-name="Path 1165" d="M466.171,313.713v17.459h4.8" transform="translate(-380.539 -266.548)" fill="none" stroke="#63c6ff" stroke-linecap="round" stroke-width="1" stroke-dasharray="2 4"/>
    </g>
    <g id="Group_2056" data-name="Group 2056" transform="translate(245.495 189.499)">
      <g id="Group_2055" data-name="Group 2055" transform="translate(7.713 0)">
        <rect id="Rectangle_2569" data-name="Rectangle 2569" width="7.733" height="21.748" transform="translate(0 33.506)" fill="none" stroke="#63c6ff" stroke-linecap="round" stroke-linejoin="round" stroke-width="2"/>
        <rect id="Rectangle_2570" data-name="Rectangle 2570" width="11.425" height="13.511" transform="translate(39.146 41.742)" fill="none" stroke="#63c6ff" stroke-linecap="round" stroke-linejoin="round" stroke-width="2"/>
        <rect id="Rectangle_2571" data-name="Rectangle 2571" width="8.237" height="8.237" transform="translate(39.146 33.506)" fill="none" stroke="#63c6ff" stroke-linecap="round" stroke-linejoin="round" stroke-width="2"/>
        <g id="Group_2054" data-name="Group 2054" transform="translate(7.733)">
          <path id="Path_1166" data-name="Path 1166" d="M367.63,269.078H336.216V221.072l15.707-7.247,15.707,7.247Z" transform="translate(-336.216 -213.825)" fill="none" stroke="#63c6ff" stroke-linecap="round" stroke-linejoin="round" stroke-width="2"/>
          <line id="Line_199" data-name="Line 199" x2="24.254" transform="translate(3.58 11.034)" fill="none" stroke="#63c6ff" stroke-linecap="round" stroke-linejoin="round" stroke-width="2"/>
          <line id="Line_200" data-name="Line 200" x2="24.254" transform="translate(3.58 15.406)" fill="none" stroke="#63c6ff" stroke-linecap="round" stroke-linejoin="round" stroke-width="2"/>
          <line id="Line_201" data-name="Line 201" x2="24.254" transform="translate(3.58 19.778)" fill="none" stroke="#63c6ff" stroke-linecap="round" stroke-linejoin="round" stroke-width="2"/>
          <line id="Line_202" data-name="Line 202" x2="24.254" transform="translate(3.58 24.15)" fill="none" stroke="#63c6ff" stroke-linecap="round" stroke-linejoin="round" stroke-width="2"/>
          <line id="Line_203" data-name="Line 203" x2="24.254" transform="translate(3.58 28.522)" fill="none" stroke="#63c6ff" stroke-linecap="round" stroke-linejoin="round" stroke-width="2"/>
          <line id="Line_204" data-name="Line 204" x2="24.254" transform="translate(3.58 32.894)" fill="none" stroke="#63c6ff" stroke-linecap="round" stroke-linejoin="round" stroke-width="2"/>
          <line id="Line_205" data-name="Line 205" x2="24.254" transform="translate(3.58 37.266)" fill="none" stroke="#63c6ff" stroke-linecap="round" stroke-linejoin="round" stroke-width="2"/>
          <line id="Line_206" data-name="Line 206" x2="24.254" transform="translate(3.58 41.638)" fill="none" stroke="#63c6ff" stroke-linecap="round" stroke-linejoin="round" stroke-width="2"/>
          <g id="Group_2053" data-name="Group 2053" transform="translate(9.007 46.427)">
            <rect id="Rectangle_2572" data-name="Rectangle 2572" width="6.699" height="8.827" fill="none" stroke="#63c6ff" stroke-linecap="round" stroke-linejoin="round" stroke-width="2"/>
            <rect id="Rectangle_2573" data-name="Rectangle 2573" width="6.699" height="8.827" transform="translate(6.699)" fill="none" stroke="#63c6ff" stroke-linecap="round" stroke-linejoin="round" stroke-width="2"/>
          </g>
        </g>
      </g>
      <line id="Line_207" data-name="Line 207" x2="65.997" transform="translate(0 55.253)" fill="none" stroke="#63c6ff" stroke-linecap="round" stroke-linejoin="round" stroke-width="2"/>
    </g>
    <g id="Group_2057" data-name="Group 2057" transform="translate(253.209 211.882)">
      <path id="Path_1167" data-name="Path 1167" d="M319.169,281.063h0a2.579,2.579,0,1,0-4.583.131l2.259,4.547,2.259-4.547c.024-.043.044-.087.065-.131Z" transform="translate(-314.265 -277.369)" fill="none" stroke="#63c6ff" stroke-linecap="round" stroke-linejoin="round" stroke-width="1"/>
      <circle id="Ellipse_478" data-name="Ellipse 478" cx="0.963" cy="0.963" r="0.963" transform="translate(1.617 1.549)" fill="none" stroke="#63c6ff" stroke-linecap="round" stroke-linejoin="round" stroke-width="1"/>
    </g>
    <g id="Group_2058" data-name="Group 2058" transform="translate(295.487 211.43)">
      <path id="Path_1168" data-name="Path 1168" d="M439.19,279.778h0a2.579,2.579,0,1,0-4.583.131l2.259,4.547,2.259-4.547c.024-.043.044-.087.065-.131Z" transform="translate(-434.286 -276.084)" fill="none" stroke="#63c6ff" stroke-linecap="round" stroke-linejoin="round" stroke-width="1"/>
      <circle id="Ellipse_479" data-name="Ellipse 479" cx="0.963" cy="0.963" r="0.963" transform="translate(1.617 1.549)" fill="none" stroke="#63c6ff" stroke-linecap="round" stroke-linejoin="round" stroke-width="1"/>
    </g>
    <g id="Group_2059" data-name="Group 2059" transform="translate(282.362 181.687)">
      <path id="Path_1169" data-name="Path 1169" d="M401.932,195.343h0a2.579,2.579,0,1,0-4.584.131l2.259,4.547,2.259-4.547c.024-.043.044-.087.065-.131Z" transform="translate(-397.028 -191.649)" fill="none" stroke="#63c6ff" stroke-linecap="round" stroke-linejoin="round" stroke-width="1"/>
      <circle id="Ellipse_480" data-name="Ellipse 480" cx="0.963" cy="0.963" r="0.963" transform="translate(1.617 1.549)" fill="none" stroke="#63c6ff" stroke-linecap="round" stroke-linejoin="round" stroke-width="1"/>
    </g>
  </g>
</svg>
