<svg xmlns="http://www.w3.org/2000/svg" xmlns:xlink="http://www.w3.org/1999/xlink" width="49.685" height="49.685" viewBox="0 0 49.685 49.685"><defs><style>.a{fill:#fff;opacity:0.8;}.b{filter:url(#a);}</style><filter id="a" x="0" y="0" width="49.685" height="49.685" filterUnits="userSpaceOnUse"><feOffset dy="3" input="SourceAlpha"/><feGaussianBlur stdDeviation="3" result="b"/><feFlood flood-opacity="0.161"/><feComposite operator="in" in2="b"/><feComposite in="SourceGraphic"/></filter></defs><g class="b" transform="matrix(1, 0, 0, 1, 0, 0)"><path class="a" d="M23.843,8A15.843,15.843,0,1,1,8,23.843,15.84,15.84,0,0,1,23.843,8Zm7.276,14.757L22.463,14.1a1.527,1.527,0,0,0-2.166,0l-1.086,1.086a1.527,1.527,0,0,0,0,2.166l6.49,6.49-6.49,6.49a1.527,1.527,0,0,0,0,2.166L20.3,33.585a1.527,1.527,0,0,0,2.166,0l8.656-8.656A1.535,1.535,0,0,0,31.119,22.757Z" transform="translate(1 -2)"/></g></svg>