<svg id="Group_2484" data-name="Group 2484" xmlns="http://www.w3.org/2000/svg" width="278" height="200" viewBox="0 0 278 200">
  <path id="Rectangle_2817" data-name="Rectangle 2817" d="M7,0H271a7,7,0,0,1,7,7V200a0,0,0,0,1,0,0H0a0,0,0,0,1,0,0V7A7,7,0,0,1,7,0Z" fill="#dededf"/>
  <path id="Path_1705" data-name="Path 1705" d="M0,5.286A4.286,4.286,0,0,1,4.288,1H30a4.286,4.286,0,0,1,4.286,4.286V26.714A4.286,4.286,0,0,1,30,31H4.288A4.286,4.286,0,0,1,0,26.714V5.286ZM2.145,24.571v2.143a2.143,2.143,0,0,0,2.143,2.143H30a2.143,2.143,0,0,0,2.143-2.143v-7.5l-8.094-4.172a1.071,1.071,0,0,0-1.236.2l-7.95,7.95-5.7-3.8a1.071,1.071,0,0,0-1.35.133ZM12.859,10.643a3.214,3.214,0,1,0-3.214,3.214A3.214,3.214,0,0,0,12.859,10.643Z" transform="translate(121.855 84)" fill="#a0a0a0"/>
</svg>
