<svg id="Camada_1" data-name="Camada 1" xmlns="http://www.w3.org/2000/svg" viewBox="0 0 1291.08 200"><defs><style>.cls-1{fill:#878787;}</style></defs><path class="cls-1" d="M296.94,64.75V80.64a7.86,7.86,0,0,1-7.42,7.78c-17.45,1.23-34.93,11.55-34.93,38.5v61.4a7.91,7.91,0,0,1-7.91,7.91H232.79a7.91,7.91,0,0,1-7.9-7.91V66.63a7.91,7.91,0,0,1,7.9-7.91h13.89a7.91,7.91,0,0,1,7.91,7.91V81.82C261.38,66.43,274,59,287.85,56.92A7.91,7.91,0,0,1,296.94,64.75Z"/><path class="cls-1" d="M658.1,69l-38.21,121.7a7.91,7.91,0,0,1-7.54,5.54H594.84a7.91,7.91,0,0,1-7.56-5.58l-26.88-87.1-27.15,87.12a7.91,7.91,0,0,1-7.55,5.56H508.18a7.92,7.92,0,0,1-7.55-5.54L462.42,69A7.9,7.9,0,0,1,470,58.72h14.59a7.9,7.9,0,0,1,7.62,5.77l25.05,89.11,27.17-89.28a7.91,7.91,0,0,1,7.57-5.6h16.59a7.9,7.9,0,0,1,7.57,5.62L603,153.6l25.32-89.14a7.89,7.89,0,0,1,7.6-5.74h14.61A7.9,7.9,0,0,1,658.1,69Z"/><path class="cls-1" d="M679.19,19.11a18.95,18.95,0,0,1,36-8.33c6.4,13.16-3.76,27.31-17,27.31A19.2,19.2,0,0,1,679.19,19.11Zm12,39.61h13.89a7.91,7.91,0,0,1,7.9,7.91V188.32a7.91,7.91,0,0,1-7.9,7.91H691.23a7.91,7.91,0,0,1-7.91-7.91V66.63A7.91,7.91,0,0,1,691.23,58.72Z"/><path class="cls-1" d="M872.53,111.8v76.52a7.91,7.91,0,0,1-7.91,7.91H850.73a7.91,7.91,0,0,1-7.91-7.91v-73.5c0-20.9-12.1-31.9-30.8-31.9-19.52,0-34.92,11.55-34.92,39.6v65.8a7.91,7.91,0,0,1-7.91,7.91H755.3a7.91,7.91,0,0,1-7.91-7.91V66.63a7.91,7.91,0,0,1,7.91-7.91h13.89a7.91,7.91,0,0,1,7.91,7.91v9.69C786.17,62,801,55.14,819.72,55.14,850.53,55.14,872.53,76,872.53,111.8Z"/><path class="cls-1" d="M900,100C900,45,941.55.69,1000.13.69c33.18,0,62.5,15.87,79.21,40.87a5.93,5.93,0,0,1-2,8.39l-2.53,1.45a6,6,0,0,1-8-2c-13.56-20.91-38.57-34.67-66.66-34.67-50.61,0-85.54,38-85.54,85.26s34.93,85.26,85.54,85.26c28.36,0,53.64-14,67.23-35.42a6,6,0,0,1,8-2.07l2.55,1.47a5.91,5.91,0,0,1,2.06,8.32c-16.51,25.34-46.14,41.72-79.86,41.72C941.55,199.25,900,155,900,100Z"/><path class="cls-1" d="M1104.07,127.47c0-40.7,32.18-71.78,72.34-71.78,39.87,0,72,31.08,72,71.78s-32.18,71.78-72,71.78C1136.25,199.25,1104.07,168.18,1104.07,127.47Zm130.36,0c0-32.21-24.51-57.76-56.49-58.56-32.42-.8-59.84,26.13-59.84,58.56,0,32.17,24.72,57.7,56.64,58.56C1207.11,186.9,1234.43,159.85,1234.43,127.47Z"/><path class="cls-1" d="M1266.33,186.6a12.14,12.14,0,0,1,12-12.37,12.38,12.38,0,1,1,.42,24.75A12.15,12.15,0,0,1,1266.33,186.6Z"/><path class="cls-1" d="M197.45,106.38A10.67,10.67,0,0,0,187,95.49l-74.87-1.72a10.67,10.67,0,0,0-10.89,10.44l-.45,10.09a10.67,10.67,0,0,0,10.44,10.89l49.29-.28c-10.71,22-31.88,46.55-70.16,43.41-46.18-3.79-60.53-48.81-57.54-76.72C37.63,46.93,83.89,26.16,113.59,32c26.75,5.3,34.07,18.17,42.9,29.53,3,3.83,8,8.49,16.46,1.88l6.5-5.51c5.39-3.49,10-9,6-15.25C170.66,20,149.28,7.16,120,1.8,64-8.45,12.88,26,2,81.35-8.7,136.18,23.6,193,84.07,199.51c33.14,3.56,69.82-12.26,83.28-47.43l-.85,33.21a10.66,10.66,0,0,0,10.44,10.89l9.62,0a10.67,10.67,0,0,0,10.89-10.44Z"/><path class="cls-1" d="M345.4,156.82a43.71,43.71,0,0,1-10.79-29.35c0-25,18.71-43.45,42.91-43.45a42.68,42.68,0,0,1,29.38,11.3l20.69-20.69a72.72,72.72,0,0,0-50.07-19.49c-40.15,0-72.61,31.35-72.61,72.33a71.78,71.78,0,0,0,19.86,50Z"/><path class="cls-1" d="M411,99.64a44,44,0,0,1,9.46,27.83c0,25-18.7,43.45-42.9,43.45A42.83,42.83,0,0,1,349.63,161L329,181.58a72.75,72.75,0,0,0,48.49,18.22c40.43,0,72.6-31.62,72.6-72.33a71.93,71.93,0,0,0-18.37-48.61Z"/></svg>