<svg xmlns="http://www.w3.org/2000/svg" xmlns:xlink="http://www.w3.org/1999/xlink" width="142.519" height="39.287" viewBox="0 0 142.519 39.287"><defs><style>.a{fill:url(#a);}</style><linearGradient id="a" y1="0.5" x2="1" y2="0.5" gradientUnits="objectBoundingBox"><stop offset="0.18" stop-color="#70c1ed"/><stop offset="0.23" stop-color="#7abfdd"/><stop offset="0.33" stop-color="#94b8b4"/><stop offset="0.45" stop-color="#beae71"/><stop offset="0.61" stop-color="#f6a117"/></linearGradient></defs><path class="a" d="M.086,32.275,8.573,19.559a.589.589,0,0,0,0-.662L3.03,10.773a.589.589,0,0,1,.316-.9L7.6,8.683a.589.589,0,0,1,.672.247l4.251,6.034a.589.589,0,0,0,1,0L23.438.261A.589.589,0,0,1,24.11.015l4.182,1.153a.589.589,0,0,1,.326.888L17.208,19.694a.589.589,0,0,0,0,.644l5.453,8.344a.589.589,0,0,1-.5.917H17.212a.589.589,0,0,1-.5-.283l-3.49-5.058a.589.589,0,0,0-1-.016l-6.142,8.69a.589.589,0,0,1-.493.265H.575a.589.589,0,0,1-.489-.923ZM41.666,9.221a.589.589,0,0,1,.589.589V30.574a7.629,7.629,0,0,1-2.946,6.45,12.692,12.692,0,0,1-7.9,2.249,18.64,18.64,0,0,1-4.2-.652,14.039,14.039,0,0,1-3.677-1.375.589.589,0,0,1-.246-.746l1.2-2.83a.589.589,0,0,1,.786-.31,18.446,18.446,0,0,0,2.9,1.084,13.278,13.278,0,0,0,3.109.464,6.437,6.437,0,0,0,3.972-1.22,3.811,3.811,0,0,0,1.493-3.143v-.733a.589.589,0,0,0-.852-.521,8.287,8.287,0,0,1-3.646.835,9.885,9.885,0,0,1-7.5-2.88A10.824,10.824,0,0,1,22,19.435,12.26,12.26,0,0,1,23.242,13.8a8.916,8.916,0,0,1,3.593-3.783,11.1,11.1,0,0,1,5.59-1.344,7.574,7.574,0,0,1,2.962.672A10.866,10.866,0,0,1,37.7,10.681a.589.589,0,0,0,.845-.151l.684-1.039a.589.589,0,0,1,.493-.269Zm-7.071,15.8a9.709,9.709,0,0,0,1.915-1.082.589.589,0,0,0,.249-.483V15.35a.6.6,0,0,0-.22-.466,7.464,7.464,0,0,0-1.888-1.145,5.877,5.877,0,0,0-2.186-.393,4.226,4.226,0,0,0-3.536,1.7,6.942,6.942,0,0,0-1.3,4.388,6.932,6.932,0,0,0,1.281,4.351,4.227,4.227,0,0,0,3.551,1.66,5.6,5.6,0,0,0,2.123-.418Zm42.529,0a9.3,9.3,0,0,1-3.8,3.761,11.912,11.912,0,0,1-5.736,1.324,12.07,12.07,0,0,1-5.737-1.3,9.177,9.177,0,0,1-3.8-3.718,11.373,11.373,0,0,1-1.351-5.651,11.536,11.536,0,0,1,1.345-5.673,9.267,9.267,0,0,1,3.8-3.756,11.894,11.894,0,0,1,5.737-1.324,12.1,12.1,0,0,1,5.736,1.3,9.183,9.183,0,0,1,3.8,3.714,11.459,11.459,0,0,1,1.344,5.653,11.582,11.582,0,0,1-1.344,5.675Zm-5.779-1.3a6.434,6.434,0,0,0,1.491-4.37,6.3,6.3,0,0,0-1.471-4.321,5.03,5.03,0,0,0-7.543.043,6.421,6.421,0,0,0-1.493,4.37A6.317,6.317,0,0,0,63.8,23.762a5.03,5.03,0,0,0,7.545-.043Zm24.142,5.464L92.364,19.017a.589.589,0,0,0-1.135,0L88.253,29.174a.589.589,0,0,1-.57.426H83.942a.589.589,0,0,1-.566-.416L77.59,10.639a.589.589,0,0,1,.393-.744l4.209-1.251a.589.589,0,0,1,.744.424l2.43,9.7a.589.589,0,0,0,1.151,0l2.251-9.092a.589.589,0,0,1,.589-.454h5.089a.589.589,0,0,1,.574.44l2.43,9.171A.589.589,0,0,0,98.6,18.82l2.237-9.143a.589.589,0,0,1,.576-.452h4.48a.589.589,0,0,1,.566.782l-6.136,19.2a.589.589,0,0,1-.564.412h-3.71a.589.589,0,0,1-.566-.43ZM119.41,9.64l1.208,3.017a.589.589,0,0,1-.552.813h-3.909a.589.589,0,0,0-.589.589v8.067a4.185,4.185,0,0,0,.786,2.648,2.644,2.644,0,0,0,2.208,1.01,4.838,4.838,0,0,0,1.691-.318.589.589,0,0,1,.76.33l1.192,2.946a.589.589,0,0,1-.265.744,7.145,7.145,0,0,1-1.424.589,7.749,7.749,0,0,1-2.249.379,8.592,8.592,0,0,1-5.967-1.933,6.987,6.987,0,0,1-2.161-5.429V14.057a.589.589,0,0,0-.589-.589H108a.589.589,0,0,1-.589-.589V9.86A.589.589,0,0,1,108,9.27h1.546a.589.589,0,0,0,.589-.589V4.929a.589.589,0,0,1,.487-.589l4.237-.754a.589.589,0,0,1,.7.589v4.5a.589.589,0,0,0,.589.589h2.7a.589.589,0,0,1,.558.377Zm21.538,1.1a10.391,10.391,0,0,1,1.554,6.089V29a.589.589,0,0,1-.589.589h-4.284a.589.589,0,0,1-.589-.589V17.078a4.846,4.846,0,0,0-.786-2.946,2.553,2.553,0,0,0-2.161-1.051,5.777,5.777,0,0,0-2.689.658,21.547,21.547,0,0,0-2.522,1.571.6.6,0,0,0-.251.487V29.019a.589.589,0,0,1-.589.589H123.8a.589.589,0,0,1-.589-.589V.944a.589.589,0,0,1,.542-.589l4.233-.365a.589.589,0,0,1,.644.589V9.761a.589.589,0,0,0,.87.521,16.336,16.336,0,0,1,2.7-1.141,11.072,11.072,0,0,1,3.321-.589q3.866,0,5.421,2.186ZM56.29,9.18a10.2,10.2,0,0,0-6.511,2.508.2.2,0,0,1-.324-.163V9.783a.609.609,0,0,0-.609-.609H44.573a.609.609,0,0,0-.609.609V29.007a.609.609,0,0,0,.609.609h4.26a.609.609,0,0,0,.609-.609V17.141c1.783-1.571,4.614-3.339,6.875-3.561a.416.416,0,0,0,.381-.393v-3.6a.409.409,0,0,0-.42-.407Z" transform="translate(0.018 0.013)"/></svg>