<svg id="Camada_1" data-name="Camada 1" xmlns="http://www.w3.org/2000/svg" xmlns:xlink="http://www.w3.org/1999/xlink" viewBox="0 0 725.54 200"><defs><style>.cls-1{fill:url(#Gradiente_sem_nome_28);}</style><linearGradient id="Gradiente_sem_nome_28" y1="100" x2="725.54" y2="100" gradientUnits="userSpaceOnUse"><stop offset="0.18" stop-color="#70c1ed"/><stop offset="0.23" stop-color="#7abfdd"/><stop offset="0.33" stop-color="#94b8b4"/><stop offset="0.45" stop-color="#beae71"/><stop offset="0.61" stop-color="#f6a117"/></linearGradient></defs><path class="cls-1" d="M.51,164.37,43.72,99.63a3,3,0,0,0,0-3.37L15.5,54.9a3,3,0,0,1,1.61-4.59l21.67-6.05a3,3,0,0,1,3.42,1.26L63.84,76.24a3,3,0,0,0,5.08,0L119.4,1.38A3,3,0,0,1,122.82.13L144.11,6a3,3,0,0,1,1.66,4.52l-58.09,89.8a3,3,0,0,0,0,3.28l27.76,42.48a3,3,0,0,1-2.53,4.67H87.7a3,3,0,0,1-2.57-1.44L67.36,123.56a3,3,0,0,0-5.09-.08L31,167.72a3,3,0,0,1-2.51,1.35H3A3,3,0,0,1,.51,164.37ZM212.2,47a3,3,0,0,1,3,3V155.71q0,21.39-15,32.84T160,200q-7.92,0-21.39-3.32-11.57-2.84-18.72-7a3,3,0,0,1-1.25-3.8l6.12-14.41a3,3,0,0,1,4-1.58,93.91,93.91,0,0,0,14.76,5.52,67.6,67.6,0,0,0,15.83,2.36q12.63-.23,20.22-6.21a19.4,19.4,0,0,0,7.6-16v-3.73a3,3,0,0,0-4.34-2.65,42.19,42.19,0,0,1-18.56,4.25q-24.18,0-38.19-14.66T112.09,99q0-16.26,6.31-28.67a45.39,45.39,0,0,1,18.29-19.26q12-6.84,28.46-6.84a38.56,38.56,0,0,1,15.08,3.42A55.32,55.32,0,0,1,192,54.43a3,3,0,0,0,4.3-.77l3.48-5.29A3,3,0,0,1,202.29,47Zm-36,80.45a49.43,49.43,0,0,0,9.75-5.51,3,3,0,0,0,1.27-2.46V78.2a3.06,3.06,0,0,0-1.12-2.37A38,38,0,0,0,176.49,70a29.92,29.92,0,0,0-11.13-2q-11.34,0-18,8.66T140.76,99q0,13.69,6.52,22.15t18.08,8.45A28.5,28.5,0,0,0,176.17,127.47Zm216.52,0a47.33,47.33,0,0,1-19.37,19.15q-12.51,6.74-29.2,6.74t-29.21-6.64a46.72,46.72,0,0,1-19.36-18.93Q288.7,115.49,288.7,99t6.85-28.88A47.18,47.18,0,0,1,314.91,51q12.52-6.75,29.21-6.74t29.2,6.63A46.75,46.75,0,0,1,392.69,69.8q6.84,12.32,6.84,28.78T392.69,127.47Zm-29.42-6.64q7.59-8.76,7.59-22.25t-7.49-22a25.61,25.61,0,0,0-38.4.22q-7.61,8.77-7.6,22.25t7.49,22a25.61,25.61,0,0,0,38.41-.22Zm122.91,27.82L470.31,96.87a3,3,0,0,0-5.78,0l-15.15,51.71a3,3,0,0,1-2.9,2.17H427.43a3,3,0,0,1-2.88-2.12L395.09,54.22a3,3,0,0,1,2-3.79l21.43-6.37a3,3,0,0,1,3.79,2.16L434.68,95.6a3,3,0,0,0,5.86,0L452,49.31A3,3,0,0,1,455,47h25.91a3,3,0,0,1,2.92,2.24L496.2,95.93a3,3,0,0,0,5.85-.06l11.39-46.55a3,3,0,0,1,2.93-2.3h22.81A3,3,0,0,1,542.06,51l-31.24,97.74a3,3,0,0,1-2.87,2.1H489.06A3,3,0,0,1,486.18,148.65ZM608,49.13l6.15,15.36a3,3,0,0,1-2.81,4.14h-19.9a3,3,0,0,0-3,3V112.7q0,8.35,4,13.48t11.24,5.14a24.63,24.63,0,0,0,8.61-1.62,3,3,0,0,1,3.87,1.68l6.07,15a3,3,0,0,1-1.35,3.79,36.38,36.38,0,0,1-7.25,3,39.45,39.45,0,0,1-11.45,1.93q-19.47,0-30.38-9.84T560.8,117.62v-46a3,3,0,0,0-3-3h-7.87a3,3,0,0,1-3-3V50.25a3,3,0,0,1,3-3h7.87a3,3,0,0,0,3-3V25.15a3,3,0,0,1,2.48-3l21.57-3.84a3,3,0,0,1,3.55,3v22.9a3,3,0,0,0,3,3h13.76A3,3,0,0,1,608,49.13Zm109.65,5.59q7.9,11.13,7.91,31v62a3,3,0,0,1-3,3H700.75a3,3,0,0,1-3-3V87q0-9.63-4-15a13,13,0,0,0-11-5.35A29.41,29.41,0,0,0,669.06,70a109.7,109.7,0,0,0-12.84,8,3.06,3.06,0,0,0-1.28,2.48v67.31a3,3,0,0,1-3,3H630.35a3,3,0,0,1-3-3V4.86a3,3,0,0,1,2.76-3L651.66,0a3,3,0,0,1,3.28,3V49.75a3,3,0,0,0,4.43,2.65,83.17,83.17,0,0,1,13.75-5.81,56.37,56.37,0,0,1,16.91-3Q709.71,43.59,717.63,54.72Zm-431-7.93c-16.5.48-24.75,6.58-33.15,12.77a1,1,0,0,1-1.65-.83V49.86a3.1,3.1,0,0,0-3.1-3.1H227a3.1,3.1,0,0,0-3.1,3.1v97.87a3.1,3.1,0,0,0,3.1,3.1h21.69a3.1,3.1,0,0,0,3.1-3.1V87.32c9.08-8,23.49-17,35-18.13a2.12,2.12,0,0,0,1.94-2V48.86A2.08,2.08,0,0,0,286.59,46.79Z"/></svg>