<svg xmlns="http://www.w3.org/2000/svg" viewBox="0 0 725.54 237.32"><defs><style>.cls-1{isolation:isolate;}.cls-2{fill:none;}.cls-3,.cls-7{fill:#fff;}.cls-4{fill:#eae9d8;}.cls-5{fill:#ee2528;}.cls-6{fill:#de1f27;}.cls-7{mix-blend-mode:soft-light;opacity:0.2;}</style></defs><g class="cls-1"><g id="Camada_1" data-name="Camada 1"><path class="cls-2" d="M176.49,107.34a30.12,30.12,0,0,0-11.13-2q-11.34,0-18,8.67t-6.63,22.36q0,13.68,6.52,22.14t18.08,8.45a28.31,28.31,0,0,0,10.81-2.14,49.36,49.36,0,0,0,9.75-5.5,3,3,0,0,0,1.27-2.47v-41.3a3,3,0,0,0-1.12-2.36A37.75,37.75,0,0,0,176.49,107.34Z"/><path class="cls-2" d="M344.12,105.31A24.28,24.28,0,0,0,325,114.08q-7.61,8.78-7.6,22.26t7.49,22a25.62,25.62,0,0,0,38.41-.21q7.59-8.78,7.59-22.25t-7.49-22A24.43,24.43,0,0,0,344.12,105.31Z"/><path class="cls-3" d="M87.69,141a3,3,0,0,1,0-3.29l58.09-89.79a3,3,0,0,0-1.66-4.52l-21.29-5.91a3,3,0,0,0-3.42,1.25L68.92,113.57a3,3,0,0,1-5.08,0L42.2,82.84a3,3,0,0,0-3.42-1.25l-21.67,6a3,3,0,0,0-1.61,4.58l28.21,41.36a3,3,0,0,1,0,3.38L.51,201.7A3,3,0,0,0,3,206.39H28.45A3,3,0,0,0,31,205.05L62.27,160.8a3,3,0,0,1,5.09.09l17.77,25.79a3,3,0,0,0,2.57,1.43h25.22a3,3,0,0,0,2.53-4.67Z"/><path class="cls-3" d="M288.7,86.19a2.06,2.06,0,0,0-2.11-2.07c-16.5.47-24.75,6.57-33.15,12.76a1,1,0,0,1-1.65-.83V87.19a3.1,3.1,0,0,0-3.1-3.11H227a3.1,3.1,0,0,0-3.1,3.11v97.86a3.1,3.1,0,0,0,3.1,3.11h21.69a3.1,3.1,0,0,0,3.1-3.11V124.64c9.08-8,23.49-17,35-18.12a2.13,2.13,0,0,0,1.94-2.06Z"/><path class="cls-3" d="M212.2,84.34h-9.91a3,3,0,0,0-2.52,1.36L196.29,91a3,3,0,0,1-4.3.77A54.93,54.93,0,0,0,180.23,85a38.56,38.56,0,0,0-15.08-3.42q-16.49,0-28.46,6.85a45.31,45.31,0,0,0-18.29,19.25q-6.32,12.42-6.31,28.68,0,25,14,39.68t38.19,14.66a42.32,42.32,0,0,0,18.56-4.24,3,3,0,0,1,4.34,2.64v3.74a19.42,19.42,0,0,1-7.6,16.05q-7.59,6-20.22,6.2a67.58,67.58,0,0,1-15.83-2.35,94.92,94.92,0,0,1-14.76-5.52,3,3,0,0,0-4,1.57l-6.12,14.42A3,3,0,0,0,119.9,227q7.16,4.19,18.72,7,13.47,3.31,21.39,3.31,25.25,0,40.23-11.44t15-32.85V87.36A3,3,0,0,0,212.2,84.34Zm-25,72.48a3,3,0,0,1-1.27,2.47,49.36,49.36,0,0,1-9.75,5.5,28.31,28.31,0,0,1-10.81,2.14q-11.55,0-18.08-8.45t-6.52-22.14q0-13.7,6.63-22.36t18-8.67a30.12,30.12,0,0,1,11.13,2,37.75,37.75,0,0,1,9.58,5.82,3,3,0,0,1,1.12,2.36Z"/><path class="cls-3" d="M717.63,92Q709.71,80.92,690,80.92a56.65,56.65,0,0,0-16.91,3,82.37,82.37,0,0,0-13.75,5.82,3,3,0,0,1-4.43-2.65V40.34a3,3,0,0,0-3.28-3L630.1,39.17a3,3,0,0,0-2.76,3V185.09a3,3,0,0,0,3,3h21.57a3,3,0,0,0,3-3V117.78a3,3,0,0,1,1.28-2.47,109.89,109.89,0,0,1,12.84-8A29.4,29.4,0,0,1,682.75,104a12.92,12.92,0,0,1,11,5.35q4,5.34,4,15v60.74a3,3,0,0,0,3,3h21.78a3,3,0,0,0,3-3v-62Q725.54,103.17,717.63,92Z"/><path class="cls-3" d="M373.32,88.19q-12.51-6.63-29.2-6.63T314.91,88.3a47.24,47.24,0,0,0-19.36,19.15q-6.85,12.4-6.85,28.89t6.85,28.77a46.68,46.68,0,0,0,19.36,18.94q12.52,6.63,29.21,6.63t29.2-6.74a47.21,47.21,0,0,0,19.37-19.15q6.84-12.4,6.84-28.88t-6.84-28.78A46.83,46.83,0,0,0,373.32,88.19Zm-10.05,70a25.62,25.62,0,0,1-38.41.21q-7.49-8.55-7.49-22t7.6-22.26a25.6,25.6,0,0,1,38.4-.21q7.5,8.56,7.49,22T363.27,158.16Z"/><path class="cls-3" d="M616.07,168.7A3,3,0,0,0,612.2,167a24.63,24.63,0,0,1-8.61,1.62q-7.27,0-11.24-5.13t-4-13.48V109a3,3,0,0,1,3-3h19.9a3,3,0,0,0,2.81-4.14L608,86.45a3,3,0,0,0-2.8-1.89H591.42a3,3,0,0,1-3-3V58.63a3,3,0,0,0-3.55-3l-21.57,3.85a3,3,0,0,0-2.49,3V81.54a3,3,0,0,1-3,3h-7.87a3,3,0,0,0-3,3v15.35a3,3,0,0,0,3,3h7.87a3,3,0,0,1,3,3v46q0,17.76,10.92,27.6t30.38,9.84a39.75,39.75,0,0,0,11.45-1.92,35.77,35.77,0,0,0,7.25-3,3,3,0,0,0,1.35-3.79Z"/><path class="cls-3" d="M539.18,84.34H516.37a3,3,0,0,0-2.93,2.3l-11.39,46.55a3,3,0,0,1-5.85.06L483.79,86.58a3,3,0,0,0-2.92-2.24H455A3,3,0,0,0,452,86.63l-11.49,46.29a3,3,0,0,1-5.86,0L422.34,83.55a3,3,0,0,0-3.79-2.16l-21.43,6.36a3,3,0,0,0-2,3.79L424.55,186a3,3,0,0,0,2.88,2.12h19.05a3,3,0,0,0,2.9-2.17l15.15-51.7a3,3,0,0,1,5.78,0L486.18,186a3,3,0,0,0,2.88,2.13H508a3,3,0,0,0,2.87-2.1l31.24-97.73A3,3,0,0,0,539.18,84.34Z"/><path class="cls-3" d="M121.67,77.66s4.88,1,7,3.14,4.83,5.47,4.83,7.44-1.23,1.16-1.23,1.16,3.39,2.79,2.33,6.37l-1.06,3.59A8.69,8.69,0,0,0,132.1,97s1.45,6.49-2.51,8.65-10.94,4.21-14.38,1.86l1.44-1.15s-3.71,2-8.11-1.57-2.87-9.27-2.87-9.27l1,1s-1.51-2.19-.38-6.81a49.66,49.66,0,0,1,4.11-10.12l-.24,2.79S116.05,75.58,121.67,77.66Z"/><path class="cls-4" d="M111.64,96.77c4.86,3.16,10.38.56,12.87-3.43-.21,1,.57,2.39-1,3,6.81-1.44,6-9.14,5.28-15.41,2.15,2.12,4.74,5.41,4.74,7.35s-1.23,1.16-1.23,1.16,3.39,2.79,2.33,6.37l-1.06,3.59A8.69,8.69,0,0,0,132.1,97s1.45,6.49-2.51,8.65-10.94,4.21-14.38,1.86l1.44-1.15s-3.71,2-8.11-1.57-2.87-9.27-2.87-9.27l1,1s-1.49-2.17-.4-6.73a11.7,11.7,0,0,0,5.9,2.48C107.45,93.56,113.64,95.17,111.64,96.77Z"/><path class="cls-5" d="M223.2,76.28s-79.49-3.26-81.95-7c-1-1.52-.73-5,0-8.7.06-.35.13-.7.2-1.06s.1-.49.16-.73.08-.4.13-.6c.45-2.08,1-4.06,1.44-5.6.12-.42.24-.82.34-1.16.32-1.07.54-1.75.59-1.89-.48,1-15.74,31.6-17.71,35.55S115,86.51,115.54,81,120.21,41,122,25.52,186.74-.75,190.69,0,209,1.35,213.42,12.24c3.21,8,7,38.47,8.73,54.33C222.81,72.43,223.2,76.28,223.2,76.28Z"/><path class="cls-6" d="M223.2,76.28s-79.49-3.26-81.95-7c-1-1.52-.73-5,0-8.7.06-.35.13-.7.2-1.06s.1-.49.16-.73.08-.4.13-.6c.45-2.08,1-4.06,1.44-5.6.11-.42.23-.79.33-1.13,0,0,0,0,0,0a9.61,9.61,0,0,0,.48-.9c4.23-9.09,8.76-16.29,16.83-22.55,3.82-2.95,7.44-5.1,10.82-8.54,3.54-3.6,7.54-7,12.47-8.43a27.77,27.77,0,0,1,5.73-.95c5.3-.37,10.82.24,15.46,2.85a67.75,67.75,0,0,0-12.73,1.46c-6.75,1.67-13.92,6.9-16,13.87-.13,1.15,4-.11,6.27.72-10.41,5.16-27.14,5-30.14,16.2-1.72,5,9.06,1.61,13.73,6.18-3.61,1.33-7.6.87-10.27,4,11.19,8.2,25.26,6.34,38.63,5.54,5.83-.48,11.6-.41,16.47,2.46,0,0,9.18,2.2,9.69,2.83a4,4,0,0,1,1.25.36C222.81,72.43,223.2,76.28,223.2,76.28Z"/><path class="cls-3" d="M226.1,79.2a6.69,6.69,0,0,0-.93-3.19c-3.63-5.26-26.4-10.28-43.42-10.39s-39.12-9.4-44.33-.9a76.39,76.39,0,0,0-3.39,17,33.53,33.53,0,0,0,.14,6.44c1.31,9.85,21.47,3.65,34.18,3.88S214,102.33,217.76,102.2C221,102.09,226.74,86.92,226.1,79.2Z"/><path class="cls-4" d="M192.71,89c.82-2.22,3.55-.75,4.37-3-8.17.8-16.41,2.18-24.76-.51a5.13,5.13,0,0,0,3.8-3,56.76,56.76,0,0,1-24.52,2.41c2.85.33,4.31-2.39,4.57-4.67C149.33,82,141.06,84.5,134,81.67a33.53,33.53,0,0,0,.14,6.44c1.31,9.85,21.47,3.65,34.18,3.88S214,102.33,217.76,102.2c3.19-.11,9-15.28,8.34-23C222.21,87.94,203,91.47,192.71,89Z"/><path class="cls-7" d="M146.54,23.05c1-8.29-6.17-7.09-9.75-5.92C132.41,18.57,128.67,22,128,26,127.14,31.37,145.49,31.77,146.54,23.05Z"/></g></g></svg>