<svg xmlns="http://www.w3.org/2000/svg" width="97.496" height="71.594" viewBox="0 0 97.496 71.594">
  <g id="Group_2044" data-name="Group 2044" transform="translate(-681.444 -706.736)">
    <circle id="Ellipse_465" data-name="Ellipse 465" cx="29.42" cy="29.42" r="29.42" transform="translate(683.154 708.774)" fill="#63c6ff" opacity="0.2"/>
    <g id="Group_2031" data-name="Group 2031" transform="translate(702.52 723.812)">
      <circle id="Ellipse_466" data-name="Ellipse 466" cx="6.014" cy="6.014" r="6.014" transform="translate(7.003)" fill="none" stroke="#63c6ff" stroke-linecap="round" stroke-linejoin="round" stroke-width="2"/>
      <circle id="Ellipse_467" data-name="Ellipse 467" cx="6.014" cy="6.014" r="6.014" transform="translate(25.309)" fill="none" stroke="#63c6ff" stroke-linecap="round" stroke-linejoin="round" stroke-width="2"/>
      <circle id="Ellipse_468" data-name="Ellipse 468" cx="6.014" cy="6.014" r="6.014" transform="translate(43.614)" fill="none" stroke="#63c6ff" stroke-linecap="round" stroke-linejoin="round" stroke-width="2"/>
      <path id="Path_1155" data-name="Path 1155" d="M767.852,828.539v27.976a3.009,3.009,0,0,0,3.009,3.009h0a3.009,3.009,0,0,0,3.009-3.009V844.229a1.2,1.2,0,0,1,1.2-1.2h0a1.2,1.2,0,0,1,1.2,1.2v12.286a3.009,3.009,0,0,0,3.009,3.009h0a3.009,3.009,0,0,0,3.009-3.009V828.539" transform="translate(-762.055 -807.877)" fill="none" stroke="#63c6ff" stroke-linecap="round" stroke-linejoin="round" stroke-width="2"/>
      <path id="Path_1156" data-name="Path 1156" d="M827.483,828.539v27.976a3.009,3.009,0,0,0,3.009,3.009h0a3.009,3.009,0,0,0,3.009-3.009V844.229a1.2,1.2,0,0,1,1.2-1.2h0a1.2,1.2,0,0,1,1.2,1.2v12.286a3.009,3.009,0,0,0,3.009,3.009h0a3.009,3.009,0,0,0,3.009-3.009V828.539" transform="translate(-803.38 -807.877)" fill="none" stroke="#63c6ff" stroke-linecap="round" stroke-linejoin="round" stroke-width="2"/>
      <path id="Path_1157" data-name="Path 1157" d="M887.113,828.539v27.976a3.009,3.009,0,0,0,3.009,3.009h0a3.009,3.009,0,0,0,3.009-3.009V844.229a1.2,1.2,0,0,1,1.2-1.2h0a1.2,1.2,0,0,1,1.2,1.2v12.286a3.009,3.009,0,0,0,3.009,3.009h0a3.009,3.009,0,0,0,3.009-3.009V828.539" transform="translate(-844.705 -807.877)" fill="none" stroke="#63c6ff" stroke-linecap="round" stroke-linejoin="round" stroke-width="2"/>
      <path id="Path_1158" data-name="Path 1158" d="M805.816,822.6v1.813a2.9,2.9,0,0,0,2.9,2.9h0a2.9,2.9,0,0,0,2.9-2.9V815.27a8.377,8.377,0,0,0-8.377-8.377H757.345a8.377,8.377,0,0,0-8.377,8.377v9.143a2.9,2.9,0,0,0,2.9,2.9h0a2.9,2.9,0,0,0,2.9-2.9V822.6" transform="translate(-748.968 -792.876)" fill="none" stroke="#63c6ff" stroke-linecap="round" stroke-linejoin="round" stroke-width="2"/>
    </g>
    <g id="Group_2041" data-name="Group 2041" transform="translate(681.944 707.236)">
      <g id="Group_2032" data-name="Group 2032" transform="translate(17.654 41.341)">
        <path id="Path_1159" data-name="Path 1159" d="M739.453,841.9v6.859a5.8,5.8,0,0,0,5.8,5.8h0v13.588a3.009,3.009,0,0,0,3.009,3.009h0" transform="translate(-739.453 -841.904)" fill="none" stroke="#63c6ff" stroke-linecap="round" stroke-linejoin="round" stroke-width="1" stroke-dasharray="3 4"/>
      </g>
      <circle id="Ellipse_469" data-name="Ellipse 469" cx="1.713" cy="1.713" r="1.713" transform="translate(93.07 41.516)" fill="none" stroke="#63c6ff" stroke-linecap="round" stroke-linejoin="round" stroke-width="1"/>
      <circle id="Ellipse_470" data-name="Ellipse 470" cx="1.713" cy="1.713" r="1.713" transform="translate(81.508 58.665)" fill="none" stroke="#63c6ff" stroke-linecap="round" stroke-linejoin="round" stroke-width="1"/>
      <circle id="Ellipse_471" data-name="Ellipse 471" cx="2.311" cy="2.311" r="2.311" transform="translate(6.631 11.404)" fill="none" stroke="#63c6ff" stroke-linecap="round" stroke-linejoin="round" stroke-width="1"/>
      <path id="Path_1160" data-name="Path 1160" d="M955.34,783.286l-1.815,1.048-1.815,1.048v-4.191l1.815,1.048Z" transform="translate(-868.896 -758.488)" fill="none" stroke="#63c6ff" stroke-linecap="round" stroke-linejoin="round" stroke-width="1"/>
      <path id="Path_1161" data-name="Path 1161" d="M684.273,826l-1.164-2.016-1.164-2.016H686.6l-1.164,2.016Z" transform="translate(-681.944 -786.749)" fill="none" stroke="#63c6ff" stroke-linecap="round" stroke-linejoin="round" stroke-width="1"/>
      <g id="Group_2033" data-name="Group 2033" transform="translate(13.425 18.251)">
        <line id="Line_193" data-name="Line 193" y1="4.137" fill="none" stroke="#63c6ff" stroke-linecap="round" stroke-linejoin="round" stroke-width="1"/>
        <line id="Line_194" data-name="Line 194" y1="4.137" transform="translate(1.778)" fill="none" stroke="#63c6ff" stroke-linecap="round" stroke-linejoin="round" stroke-width="1"/>
      </g>
      <g id="Group_2036" data-name="Group 2036" transform="translate(25.445)">
        <g id="Group_2034" data-name="Group 2034">
          <rect id="Rectangle_2553" data-name="Rectangle 2553" width="0.961" height="0.961" rx="0.48" fill="none" stroke="#63c6ff" stroke-linecap="round" stroke-linejoin="round" stroke-width="1"/>
          <rect id="Rectangle_2554" data-name="Rectangle 2554" width="0.961" height="0.961" rx="0.48" transform="translate(3.306)" fill="none" stroke="#63c6ff" stroke-linecap="round" stroke-linejoin="round" stroke-width="1"/>
        </g>
        <g id="Group_2035" data-name="Group 2035" transform="translate(0 3.148)">
          <rect id="Rectangle_2555" data-name="Rectangle 2555" width="0.961" height="0.961" rx="0.48" fill="none" stroke="#63c6ff" stroke-linecap="round" stroke-linejoin="round" stroke-width="1"/>
          <rect id="Rectangle_2556" data-name="Rectangle 2556" width="0.961" height="0.961" rx="0.48" transform="translate(3.306)" fill="none" stroke="#63c6ff" stroke-linecap="round" stroke-linejoin="round" stroke-width="1"/>
        </g>
      </g>
      <g id="Group_2039" data-name="Group 2039" transform="translate(11.38 55.854)">
        <g id="Group_2037" data-name="Group 2037">
          <rect id="Rectangle_2557" data-name="Rectangle 2557" width="0.744" height="0.744" rx="0.372" fill="none" stroke="#63c6ff" stroke-linecap="round" stroke-linejoin="round" stroke-width="1"/>
          <rect id="Rectangle_2558" data-name="Rectangle 2558" width="0.744" height="0.744" rx="0.372" transform="translate(2.562)" fill="none" stroke="#63c6ff" stroke-linecap="round" stroke-linejoin="round" stroke-width="1"/>
        </g>
        <g id="Group_2038" data-name="Group 2038" transform="translate(0 2.439)">
          <rect id="Rectangle_2559" data-name="Rectangle 2559" width="0.744" height="0.744" rx="0.372" fill="none" stroke="#63c6ff" stroke-linecap="round" stroke-linejoin="round" stroke-width="1"/>
          <rect id="Rectangle_2560" data-name="Rectangle 2560" width="0.744" height="0.744" rx="0.372" transform="translate(2.562)" fill="none" stroke="#63c6ff" stroke-linecap="round" stroke-linejoin="round" stroke-width="1"/>
        </g>
      </g>
      <g id="Group_2040" data-name="Group 2040" transform="translate(93.536 16.026)">
        <line id="Line_195" data-name="Line 195" y2="2.494" transform="translate(1.247)" fill="none" stroke="#63c6ff" stroke-linecap="round" stroke-linejoin="round" stroke-width="1"/>
        <line id="Line_196" data-name="Line 196" x1="2.494" transform="translate(0 1.247)" fill="none" stroke="#63c6ff" stroke-linecap="round" stroke-linejoin="round" stroke-width="1"/>
      </g>
    </g>
    <g id="Group_2043" data-name="Group 2043" transform="translate(717.614 710.384)">
      <path id="Path_1162" data-name="Path 1162" d="M823.473,717.491H801.846a3.71,3.71,0,0,0,0,7.421h.591v4.243l4.243-4.243h16.792a3.71,3.71,0,1,0,0-7.421Z" transform="translate(-798.136 -717.491)" fill="none" stroke="#63c6ff" stroke-linecap="round" stroke-linejoin="round" stroke-width="2"/>
      <g id="Group_2042" data-name="Group 2042" transform="translate(7.53 3.073)">
        <circle id="Ellipse_472" data-name="Ellipse 472" cx="0.56" cy="0.56" r="0.56" fill="none" stroke="#63c6ff" stroke-linecap="round" stroke-linejoin="round" stroke-width="2"/>
        <circle id="Ellipse_473" data-name="Ellipse 473" cx="0.56" cy="0.56" r="0.56" transform="translate(6.434)" fill="none" stroke="#63c6ff" stroke-linecap="round" stroke-linejoin="round" stroke-width="2"/>
        <circle id="Ellipse_474" data-name="Ellipse 474" cx="0.56" cy="0.56" r="0.56" transform="translate(12.869)" fill="none" stroke="#63c6ff" stroke-linecap="round" stroke-linejoin="round" stroke-width="2"/>
      </g>
    </g>
  </g>
</svg>
