<svg xmlns="http://www.w3.org/2000/svg" width="147.036" height="147.5" viewBox="0 0 147.036 147.5"><defs><style>.a,.b{fill:#63c6ff;}.b{opacity:0.2;}</style></defs><g transform="translate(-8.028 -18.947)"><g transform="translate(29.747 64.72)"><g transform="translate(0 0)"><path class="a" d="M171.243,179.031H158.38a1.382,1.382,0,1,1,0-2.765h11.481V104.5H50.074v71.769h82.74a1.382,1.382,0,0,1,0,2.765H48.691a1.382,1.382,0,0,1-1.382-1.382V103.114a1.382,1.382,0,0,1,1.382-1.382H171.243a1.382,1.382,0,0,1,1.382,1.382v74.534A1.382,1.382,0,0,1,171.243,179.031Z" transform="translate(-47.309 -101.732)"/></g><g transform="translate(1.611 15.489)"><path class="a" d="M172.546,132.511H51.6a1.382,1.382,0,1,1,0-2.765H172.546a1.382,1.382,0,0,1,0,2.765Z" transform="translate(-50.222 -129.746)"/></g><g transform="translate(6.258 5.5)"><path class="a" d="M62.576,119.574a3.947,3.947,0,1,1,3.947-3.947A3.952,3.952,0,0,1,62.576,119.574Zm0-5.13a1.183,1.183,0,1,0,1.183,1.183A1.184,1.184,0,0,0,62.576,114.445Z" transform="translate(-58.628 -111.68)"/></g><g transform="translate(17.284 5.5)"><path class="a" d="M82.516,119.574a3.947,3.947,0,1,1,3.948-3.947A3.952,3.952,0,0,1,82.516,119.574Zm0-5.13a1.183,1.183,0,1,0,1.183,1.183A1.184,1.184,0,0,0,82.516,114.445Z" transform="translate(-78.569 -111.68)"/></g><g transform="translate(28.31 5.5)"><path class="a" d="M102.458,119.574a3.947,3.947,0,1,1,3.947-3.947A3.951,3.951,0,0,1,102.458,119.574Zm0-5.13a1.183,1.183,0,1,0,1.183,1.183A1.184,1.184,0,0,0,102.458,114.445Z" transform="translate(-98.511 -111.68)"/></g></g><g transform="translate(79.874 93.091)"><path class="a" d="M159.527,196.158A21.557,21.557,0,1,1,181.084,174.6,21.582,21.582,0,0,1,159.527,196.158Zm0-40.35A18.793,18.793,0,1,0,178.32,174.6,18.814,18.814,0,0,0,159.527,155.809Z" transform="translate(-137.97 -153.044)"/><g transform="translate(3.744 3.744)"><path class="a" d="M162.555,195.442a17.9,17.9,0,0,1-15.364-8.793,1.382,1.382,0,0,1,2.382-1.4,14.985,14.985,0,1,0-1.326-2.94,1.382,1.382,0,0,1-2.628.859,17.816,17.816,0,1,1,16.936,12.276Z" transform="translate(-144.742 -159.816)"/></g><g transform="translate(20.175 10.51)"><path class="a" d="M185.506,184.481a1.382,1.382,0,0,1-1.382-1.382,8.291,8.291,0,0,0-8.283-8.283,1.382,1.382,0,0,1,0-2.765A11.059,11.059,0,0,1,186.888,183.1,1.382,1.382,0,0,1,185.506,184.481Z" transform="translate(-174.459 -172.052)"/></g><g transform="translate(35.056 35.056)"><g transform="translate(3.657 3.654)"><path class="a" d="M236.055,257.7a4.464,4.464,0,0,1-3.167-1.309l-23.355-23.355a5.305,5.305,0,0,1,0-7.491l.939-.939a5.3,5.3,0,0,1,7.492,0l23.354,23.356a4.481,4.481,0,0,1,0,6.332l-2.1,2.1A4.463,4.463,0,0,1,236.055,257.7Zm-21.837-31.882a2.512,2.512,0,0,0-1.79.742l-.94.939a2.536,2.536,0,0,0,0,3.582l23.355,23.355a1.756,1.756,0,0,0,2.423,0l2.1-2.1a1.713,1.713,0,0,0,0-2.423L216.01,226.561A2.515,2.515,0,0,0,214.219,225.819Z" transform="translate(-207.985 -223.054)"/></g><g transform="translate(10.307 10.307)"><path class="a" d="M221.4,244.327a1.383,1.383,0,0,1-.978-2.36l6.476-6.476a1.382,1.382,0,0,1,1.955,1.955l-6.476,6.476A1.376,1.376,0,0,1,221.4,244.327Z" transform="translate(-220.014 -235.087)"/></g><path class="a" d="M208.024,224.48a1.378,1.378,0,0,1-.977-.405l-5.27-5.269a1.382,1.382,0,0,1,1.955-1.955L209,222.121a1.383,1.383,0,0,1-.978,2.36Z" transform="translate(-201.372 -216.446)"/></g></g><g transform="translate(98.193 31.183)"><path class="a" d="M174.893,48.66a3.791,3.791,0,1,1,3.791-3.791A3.8,3.8,0,0,1,174.893,48.66Zm0-6.43a2.639,2.639,0,1,0,2.638,2.639A2.642,2.642,0,0,0,174.893,42.23Z" transform="translate(-171.102 -41.078)"/></g><g transform="translate(32.263 40.481)"><path class="a" d="M52.435,69.551a.575.575,0,0,1-.576-.576V58.47a.576.576,0,0,1,.864-.5l9.1,5.253a.577.577,0,0,1,0,1l-9.1,5.253A.575.575,0,0,1,52.435,69.551Zm.576-10.083v8.509l7.369-4.255Z" transform="translate(-51.859 -57.894)"/></g><g transform="translate(8.419 110.73)"><path class="a" d="M13.169,192.782a.577.577,0,0,1-.5-.288l-3.858-6.682a.576.576,0,0,1,.5-.865h7.716a.576.576,0,0,1,.5.865l-3.858,6.682A.578.578,0,0,1,13.169,192.782Zm-2.86-6.682,2.86,4.954,2.86-4.954Z" transform="translate(-8.735 -184.947)"/></g><g transform="translate(65.292 50.627)"><path class="a" d="M113.075,79.2a1.478,1.478,0,1,1,1.477-1.478A1.48,1.48,0,0,1,113.075,79.2Zm0-1.8a.325.325,0,1,0,.325.325A.326.326,0,0,0,113.075,77.4Z" transform="translate(-111.597 -76.244)"/><g transform="translate(6.206)"><path class="a" d="M124.3,79.2a1.478,1.478,0,1,1,1.478-1.478A1.479,1.479,0,0,1,124.3,79.2Zm0-1.8a.325.325,0,1,0,.326.325A.326.326,0,0,0,124.3,77.4Z" transform="translate(-122.822 -76.244)"/></g><g transform="translate(0 5.908)"><path class="a" d="M113.075,89.886a1.478,1.478,0,1,1,1.477-1.478A1.48,1.48,0,0,1,113.075,89.886Zm0-1.8a.326.326,0,1,0,.325.326A.326.326,0,0,0,113.075,88.082Z" transform="translate(-111.597 -86.93)"/><g transform="translate(6.206)"><path class="a" d="M124.3,89.886a1.478,1.478,0,1,1,1.478-1.478A1.479,1.479,0,0,1,124.3,89.886Zm0-1.8a.326.326,0,1,0,.326.326A.326.326,0,0,0,124.3,88.082Z" transform="translate(-122.822 -86.93)"/></g></g></g><g transform="translate(146.323 38.812)"><g transform="translate(0 0)"><path class="a" d="M259.459,57.356h-.07a1.24,1.24,0,1,1,0-2.48h.07a1.24,1.24,0,1,1,0,2.48Zm-.07-1.328a.088.088,0,1,0,0,.175h.07a.088.088,0,1,0,0-.175Z" transform="translate(-258.149 -54.876)"/><g transform="translate(4.809)"><path class="a" d="M268.156,57.356h-.07a1.24,1.24,0,0,1,0-2.48h.07a1.24,1.24,0,1,1,0,2.48Zm-.07-1.328a.088.088,0,0,0,0,.175h.07a.088.088,0,1,0,0-.175Z" transform="translate(-266.847 -54.876)"/></g></g><g transform="translate(0 4.35)"><path class="a" d="M259.459,65.224h-.07a1.24,1.24,0,1,1,0-2.48h.07a1.24,1.24,0,1,1,0,2.48Zm-.07-1.328a.087.087,0,1,0,0,.175h.07a.087.087,0,1,0,0-.175Z" transform="translate(-258.149 -62.744)"/><g transform="translate(4.809)"><path class="a" d="M268.156,65.224h-.07a1.24,1.24,0,0,1,0-2.48h.07a1.24,1.24,0,1,1,0,2.48Zm-.07-1.328a.087.087,0,0,0,0,.175h.07a.087.087,0,1,0,0-.175Z" transform="translate(-266.847 -62.744)"/></g></g></g><g transform="translate(121.606 53.927)"><g transform="translate(0 0)"><path class="a" d="M214.023,91.13a.576.576,0,0,1-.576-.577V82.788a.576.576,0,1,1,1.152,0v7.765A.576.576,0,0,1,214.023,91.13Z" transform="translate(-213.447 -82.212)"/></g><g transform="translate(2.508 0)"><path class="a" d="M218.559,91.13a.576.576,0,0,1-.576-.577V82.788a.576.576,0,0,1,1.152,0v7.765A.576.576,0,0,1,218.559,91.13Z" transform="translate(-217.983 -82.212)"/></g></g><g transform="translate(8.028 61.277)"><g transform="translate(4.249)"><path class="a" d="M16.289,105.156a.576.576,0,0,1-.576-.576v-8.5a.576.576,0,0,1,1.152,0v8.5A.576.576,0,0,1,16.289,105.156Z" transform="translate(-15.713 -95.505)"/></g><g transform="translate(0 4.249)"><path class="a" d="M17.1,104.343H8.6a.576.576,0,0,1,0-1.153h8.5a.576.576,0,0,1,0,1.153Z" transform="translate(-8.028 -103.19)"/></g></g><circle class="b" cx="55.221" cy="55.221" r="55.221" transform="translate(9.349 18.947)"/><g transform="translate(24.511 99.066)"><rect class="a" width="1.106" height="1.659"/><g transform="translate(0 5.038)"><path class="a" d="M38.946,210.132H37.84v-3.379h1.106Zm0-6.758H37.84V200h1.106Zm0-6.758H37.84v-3.379h1.106Zm0-6.758H37.84v-3.379h1.106Zm0-6.758H37.84v-3.379h1.106Zm0-6.758H37.84v-3.379h1.106Z" transform="translate(-37.84 -172.963)"/></g><g transform="translate(0 45.586)"><path class="a" d="M40.051,248.51H37.84V246.3h1.106V247.4h1.106Z" transform="translate(-37.84 -246.299)"/></g><g transform="translate(5.526 46.692)"><path class="a" d="M117.447,249.4h-3.315V248.3h3.315Zm-6.63,0H107.5V248.3h3.315Zm-6.629,0h-3.315V248.3h3.315Zm-6.63,0H94.243V248.3h3.315Zm-6.629,0H87.614V248.3h3.315Zm-6.63,0H80.984V248.3H84.3Zm-6.629,0H74.354V248.3h3.315Zm-6.63,0H67.724V248.3h3.315Zm-6.629,0H61.094V248.3H64.41Zm-6.63,0H54.465V248.3H57.78Zm-6.629,0H47.835V248.3H51.15Z" transform="translate(-47.835 -248.299)"/></g><g transform="translate(78.453 46.692)"><rect class="a" width="1.659" height="1.106"/></g></g></g></svg>