<svg xmlns="http://www.w3.org/2000/svg" width="97.497" height="73.393" viewBox="0 0 97.497 73.393">
  <g id="Group_2029" data-name="Group 2029" transform="translate(-704.137 -191.435)">
    <circle id="Ellipse_462" data-name="Ellipse 462" cx="34.078" cy="34.078" r="34.078" transform="translate(704.637 191.935)" fill="#63c6ff" opacity="0.2"/>
    <circle id="Ellipse_463" data-name="Ellipse 463" cx="1.984" cy="1.984" r="1.984" transform="translate(787.455 203.908)" fill="none" stroke="#63c6ff" stroke-linecap="round" stroke-linejoin="round" stroke-width="1"/>
    <path id="Path_1144" data-name="Path 1144" d="M731.2,341.845l-2.807,1.621-2.807,1.621V338.6l2.807,1.621Z" transform="translate(-13.499 -94.515)" fill="none" stroke="#63c6ff" stroke-linecap="round" stroke-linejoin="round" stroke-width="1"/>
    <path id="Path_1145" data-name="Path 1145" d="M817.917,196.059,816.727,194l-1.19-2.062H820.3L819.108,194Z" transform="translate(-71.465)" fill="none" stroke="#63c6ff" stroke-linecap="round" stroke-linejoin="round" stroke-width="1"/>
    <g id="Group_2022" data-name="Group 2022" transform="translate(704.637 223.634)">
      <g id="Group_2020" data-name="Group 2020">
        <rect id="Rectangle_2539" data-name="Rectangle 2539" width="1.113" height="1.113" rx="0.556" fill="none" stroke="#63c6ff" stroke-linecap="round" stroke-linejoin="round" stroke-width="1"/>
        <rect id="Rectangle_2540" data-name="Rectangle 2540" width="1.113" height="1.113" rx="0.556" transform="translate(3.83)" fill="none" stroke="#63c6ff" stroke-linecap="round" stroke-linejoin="round" stroke-width="1"/>
      </g>
      <g id="Group_2021" data-name="Group 2021" transform="translate(0 3.646)">
        <rect id="Rectangle_2541" data-name="Rectangle 2541" width="1.113" height="1.113" rx="0.556" fill="none" stroke="#63c6ff" stroke-linecap="round" stroke-linejoin="round" stroke-width="1"/>
        <rect id="Rectangle_2542" data-name="Rectangle 2542" width="1.113" height="1.113" rx="0.556" transform="translate(3.83)" fill="none" stroke="#63c6ff" stroke-linecap="round" stroke-linejoin="round" stroke-width="1"/>
      </g>
    </g>
    <g id="Group_2025" data-name="Group 2025" transform="translate(759.53 203.64)">
      <g id="Group_2023" data-name="Group 2023" transform="translate(0)">
        <rect id="Rectangle_2543" data-name="Rectangle 2543" width="0.862" height="0.819" rx="0.41" fill="none" stroke="#63c6ff" stroke-linecap="round" stroke-linejoin="round" stroke-width="1"/>
        <rect id="Rectangle_2544" data-name="Rectangle 2544" width="0.862" height="0.819" rx="0.41" transform="translate(2.968)" fill="none" stroke="#63c6ff" stroke-linecap="round" stroke-linejoin="round" stroke-width="1"/>
      </g>
      <g id="Group_2024" data-name="Group 2024" transform="translate(0 2.685)">
        <rect id="Rectangle_2545" data-name="Rectangle 2545" width="0.862" height="0.819" rx="0.41" fill="none" stroke="#63c6ff" stroke-linecap="round" stroke-linejoin="round" stroke-width="1"/>
        <rect id="Rectangle_2546" data-name="Rectangle 2546" width="0.862" height="0.819" rx="0.41" transform="translate(2.968)" fill="none" stroke="#63c6ff" stroke-linecap="round" stroke-linejoin="round" stroke-width="1"/>
      </g>
    </g>
    <g id="Group_2026" data-name="Group 2026" transform="translate(799.587 223.617)">
      <line id="Line_189" data-name="Line 189" y1="4.792" transform="translate(0)" fill="none" stroke="#63c6ff" stroke-linecap="round" stroke-linejoin="round" stroke-width="1"/>
      <line id="Line_190" data-name="Line 190" y1="4.792" transform="translate(1.547)" fill="none" stroke="#63c6ff" stroke-linecap="round" stroke-linejoin="round" stroke-width="1"/>
    </g>
    <g id="Group_2027" data-name="Group 2027" transform="translate(716.046 203.27)">
      <line id="Line_191" data-name="Line 191" y2="5.245" transform="translate(2.622)" fill="none" stroke="#63c6ff" stroke-linecap="round" stroke-linejoin="round" stroke-width="1"/>
      <line id="Line_192" data-name="Line 192" x1="5.245" transform="translate(0 2.622)" fill="none" stroke="#63c6ff" stroke-linecap="round" stroke-linejoin="round" stroke-width="1"/>
    </g>
    <g id="Group_2028" data-name="Group 2028" transform="translate(720.802 214.227)">
      <rect id="Rectangle_2547" data-name="Rectangle 2547" width="9.371" height="25.019" transform="translate(55.981 4.685) rotate(-30)" fill="none" stroke="#63c6ff" stroke-linecap="round" stroke-linejoin="round" stroke-width="2"/>
      <rect id="Rectangle_2548" data-name="Rectangle 2548" width="9.371" height="25.019" transform="translate(8.115 26.353) rotate(-150)" fill="none" stroke="#63c6ff" stroke-linecap="round" stroke-linejoin="round" stroke-width="2"/>
      <path id="Path_1146" data-name="Path 1146" d="M803.587,275.619s6.974,4.278,10.15,2.573" transform="translate(-784.567 -268.154)" fill="none" stroke="#63c6ff" stroke-linecap="round" stroke-linejoin="round" stroke-width="2"/>
      <path id="Path_1147" data-name="Path 1147" d="M831.113,280.612c-2.142-1.18-3.811.971-3.811.971-3.477,6.161-7.68,6.215-9.979,5.64a1.393,1.393,0,0,1-.847-2.077l4.828-7.931a9.623,9.623,0,0,1,8.22-4.619h11.56a6.88,6.88,0,0,1,4.528,1.7h0a1.95,1.95,0,0,0,2.134.287l2.428-1.176" transform="translate(-792.741 -266.206)" fill="none" stroke="#63c6ff" stroke-linecap="round" stroke-linejoin="round" stroke-width="2"/>
      <path id="Path_1148" data-name="Path 1148" d="M921.249,327.315s4.518-2.161,6.16-6.361" transform="translate(-860.39 -297.368)" fill="none" stroke="#63c6ff" stroke-linecap="round" stroke-linejoin="round" stroke-width="2"/>
      <path id="Path_1149" data-name="Path 1149" d="M859.807,294.968l21.1,15.548a2.968,2.968,0,0,1,.629,4.15h0a2.968,2.968,0,0,1-3.954.762l-11.935-7.4" transform="translate(-820.796 -280.623)" fill="none" stroke="#63c6ff" stroke-linecap="round" stroke-linejoin="round" stroke-width="2"/>
      <path id="Path_1150" data-name="Path 1150" d="M881.4,349.394a3.185,3.185,0,0,1,.592,4.469h0a3.261,3.261,0,0,1-4.219,1.121l-10.14-6.122" transform="translate(-825.839 -315.353)" fill="none" stroke="#63c6ff" stroke-linecap="round" stroke-linejoin="round" stroke-width="2"/>
      <path id="Path_1151" data-name="Path 1151" d="M870.317,364.089a3.117,3.117,0,0,1,.672,4.36h0a3.163,3.163,0,0,1-4.135,1.008l-8.843-5.181" transform="translate(-819.638 -325.165)" fill="none" stroke="#63c6ff" stroke-linecap="round" stroke-linejoin="round" stroke-width="2"/>
      <path id="Path_1152" data-name="Path 1152" d="M858.967,374.936c1.976,1.456,1.641,4.815-1.169,4.7-2.753-.109-5.565-2.093-7.85-3.461" transform="translate(-814.442 -332.155)" fill="none" stroke="#63c6ff" stroke-linecap="round" stroke-linejoin="round" stroke-width="2"/>
      <rect id="Rectangle_2549" data-name="Rectangle 2549" width="8.562" height="6.539" rx="3.27" transform="translate(9.955 33.154) rotate(-48.241)" fill="none" stroke="#63c6ff" stroke-linecap="round" stroke-linejoin="round" stroke-width="2"/>
      <rect id="Rectangle_2550" data-name="Rectangle 2550" width="13.055" height="6.539" rx="3.27" transform="translate(14.582 37.78) rotate(-48.241)" fill="none" stroke="#63c6ff" stroke-linecap="round" stroke-linejoin="round" stroke-width="2"/>
      <rect id="Rectangle_2551" data-name="Rectangle 2551" width="11.571" height="6.539" rx="3.27" transform="translate(20.05 41.466) rotate(-48.241)" fill="none" stroke="#63c6ff" stroke-linecap="round" stroke-linejoin="round" stroke-width="2"/>
      <rect id="Rectangle_2552" data-name="Rectangle 2552" width="8.916" height="6.539" rx="3.27" transform="translate(25.875 44.834) rotate(-48.241)" fill="none" stroke="#63c6ff" stroke-linecap="round" stroke-linejoin="round" stroke-width="2"/>
      <path id="Path_1153" data-name="Path 1153" d="M776.293,322.893a18.236,18.236,0,0,0,4.165,4.931" transform="translate(-766.978 -298.618)" fill="none" stroke="#63c6ff" stroke-linecap="round" stroke-linejoin="round" stroke-width="2"/>
      <circle id="Ellipse_464" data-name="Ellipse 464" cx="1.63" cy="1.63" r="1.63" transform="translate(12.661 4.204)" fill="none" stroke="#63c6ff" stroke-linecap="round" stroke-linejoin="round" stroke-width="2"/>
    </g>
    <path id="Path_1154" data-name="Path 1154" d="M860.978,244.88l-9.333,5.632s-15.912-1.152-20.279,1.152l-4.367,2.3" transform="translate(-78.852 -34.118)" fill="none" stroke="#63c6ff" stroke-linecap="round" stroke-linejoin="round" stroke-width="1" stroke-dasharray="3 4"/>
  </g>
</svg>
