<svg xmlns="http://www.w3.org/2000/svg" width="112.24" height="40.001" viewBox="0 0 112.24 40.001"><defs><style>.a,.b{fill:#a0a0a0;}.b{font-size:14px;font-family:OpenSans-SemiBold, Open Sans;font-weight:600;}</style></defs><g transform="translate(-584 -712)"><g transform="translate(584.027 734.616)"><path class="a" d="M231.153,57.52V58.9a.683.683,0,0,1-.645.676,3.065,3.065,0,0,0-3.036,3.347v5.337a.688.688,0,0,1-.688.688h-1.207a.688.688,0,0,1-.687-.688V57.683a.688.688,0,0,1,.687-.688h1.207a.688.688,0,0,1,.688.688V59a3.6,3.6,0,0,1,2.891-2.164.688.688,0,0,1,.79.681Z" transform="translate(-205.366 -51.892)"/><path class="a" d="M479.094,59.613l-3.321,10.579a.688.688,0,0,1-.655.482H473.6a.688.688,0,0,1-.657-.485L470.6,62.618l-2.36,7.573a.688.688,0,0,1-.656.483h-1.523a.688.688,0,0,1-.656-.482l-3.321-10.579a.687.687,0,0,1,.659-.894h1.268a.687.687,0,0,1,.662.5l2.177,7.746,2.362-7.761a.688.688,0,0,1,.658-.487h1.442a.687.687,0,0,1,.658.489l2.333,7.759,2.2-7.748a.686.686,0,0,1,.661-.5h1.27a.687.687,0,0,1,.658.894Z" transform="translate(-421.913 -53.616)"/><path class="a" d="M679.19,1.751a1.649,1.649,0,1,1,1.652,1.65,1.669,1.669,0,0,1-1.652-1.65Zm1.043,3.443h1.207a.688.688,0,0,1,.687.688V16.46a.688.688,0,0,1-.687.688h-1.2a.688.688,0,0,1-.688-.688V5.882a.688.688,0,0,1,.688-.688Z" transform="translate(-620.176 -0.09)"/><path class="a" d="M758.268,60.065v6.651a.688.688,0,0,1-.688.688h-1.207a.688.688,0,0,1-.688-.688V60.328a2.491,2.491,0,0,0-2.677-2.773c-1.7,0-3.035,1-3.035,3.442v5.72a.688.688,0,0,1-.688.688h-1.207a.688.688,0,0,1-.688-.688V56.139a.688.688,0,0,1,.688-.688h1.207a.688.688,0,0,1,.688.688v.842a4.109,4.109,0,0,1,3.7-1.841C756.355,55.14,758.268,56.953,758.268,60.065Z" transform="translate(-682.447 -50.347)"/><path class="a" d="M900,9.323A8.484,8.484,0,0,1,908.7.69a8.213,8.213,0,0,1,6.885,3.553.515.515,0,0,1-.174.729l-.22.126a.522.522,0,0,1-.7-.174,6.883,6.883,0,0,0-5.794-3.014,7.234,7.234,0,0,0-7.436,7.411,7.234,7.234,0,0,0,7.436,7.411,6.892,6.892,0,0,0,5.844-3.079.522.522,0,0,1,.7-.18l.222.128a.514.514,0,0,1,.179.723,8.22,8.22,0,0,1-6.942,3.627A8.482,8.482,0,0,1,900,9.323Z" transform="translate(-821.792 -0.63)"/><path class="a" d="M1104.07,61.929a6.273,6.273,0,1,1,6.288,6.239A6.195,6.195,0,0,1,1104.07,61.929Zm11.332,0a5.01,5.01,0,0,0-4.91-5.09,5.132,5.132,0,0,0-5.2,5.09,5.03,5.03,0,0,0,4.923,5.09A5.122,5.122,0,0,0,1115.4,61.929Z" transform="translate(-1008.123 -50.85)"/><path class="a" d="M1266.328,175.3a1.055,1.055,0,0,1,1.043-1.075,1.076,1.076,0,1,1,.036,2.151,1.056,1.056,0,0,1-1.08-1.076Z" transform="translate(-1156.277 -159.077)"/><path class="a" d="M17.139,9.247a.927.927,0,0,0-.908-.947l-6.508-.15a.927.927,0,0,0-.947.907l-.039.877a.927.927,0,0,0,.907.947l4.285-.024a6.043,6.043,0,0,1-6.1,3.773c-4.014-.329-5.262-4.243-5-6.669C3.247,4.079,7.268,2.274,9.85,2.781a5.309,5.309,0,0,1,3.729,2.567.887.887,0,0,0,1.431.163l.565-.479c.469-.3.869-.782.522-1.326A8.078,8.078,0,0,0,10.407.156,8.668,8.668,0,0,0,.15,7.071c-.93,4.766,1.878,9.705,7.134,10.271a6.839,6.839,0,0,0,7.239-4.123l-.074,2.887a.927.927,0,0,0,.907.947h.836a.927.927,0,0,0,.947-.907Z" transform="translate(0 0)"/><path class="a" d="M308.428,63.977a3.8,3.8,0,0,1-.938-2.551,3.673,3.673,0,0,1,3.73-3.777,3.71,3.71,0,0,1,2.554.982l1.8-1.8a6.321,6.321,0,0,0-4.352-1.694,6.3,6.3,0,0,0-4.585,10.634Z" transform="translate(-278.429 -50.346)"/><path class="a" d="M336.128,80.666a3.825,3.825,0,0,1,.822,2.419,3.672,3.672,0,0,1-3.729,3.777A3.723,3.723,0,0,1,330.793,86L329,87.789a6.324,6.324,0,0,0,4.215,1.584,6.315,6.315,0,0,0,4.714-10.513Z" transform="translate(-300.426 -72.005)"/></g><text class="b" transform="translate(640 727)"><tspan x="-39.679" y="0">Powered by</tspan></text></g></svg>