<svg xmlns="http://www.w3.org/2000/svg" width="90.671" height="77.829" viewBox="0 0 90.671 77.829">
  <g id="Group_1982" data-name="Group 1982" transform="translate(-184.177 -719.459)">
    <circle id="Ellipse_449" data-name="Ellipse 449" cx="36.004" cy="36.004" r="36.004" transform="translate(199.683 719.459)" fill="#63c6ff" opacity="0.2"/>
    <g id="Group_1972" data-name="Group 1972" transform="translate(185.177 730.476)">
      <path id="Path_1120" data-name="Path 1120" d="M281.565,759.083l-2.091-10.3-7.647,8.578.167,7.65-17.38,20.251a.546.546,0,0,0,.77.77l20.251-17.38,7.65.167,8.578-7.647-10.3-2.091" transform="translate(-228.44 -748.785)" fill="none" stroke="#63c6ff" stroke-linecap="round" stroke-linejoin="round" stroke-width="2"/>
      <path id="Path_1121" data-name="Path 1121" d="M250.273,829.373a7.652,7.652,0,1,1-2.254-1.909" transform="translate(-217.297 -797.301)" fill="none" stroke="#63c6ff" stroke-linecap="round" stroke-linejoin="round" stroke-width="2"/>
      <path id="Path_1122" data-name="Path 1122" d="M241.177,806.067a17.724,17.724,0,1,1-3.283-3.058" transform="translate(-200.555 -780.558)" fill="none" stroke="#63c6ff" stroke-linecap="round" stroke-linejoin="round" stroke-width="2"/>
      <path id="Path_1123" data-name="Path 1123" d="M233.173,785.086a26.976,26.976,0,1,1-5.355-5.042" transform="translate(-185.177 -765.181)" fill="none" stroke="#63c6ff" stroke-linecap="round" stroke-linejoin="round" stroke-width="2"/>
    </g>
    <g id="Group_1981" data-name="Group 1981" transform="translate(191.379 720.413)">
      <circle id="Ellipse_450" data-name="Ellipse 450" cx="2.096" cy="2.096" r="2.096" transform="translate(57.147 62.64)" fill="none" stroke="#63c6ff" stroke-linecap="round" stroke-linejoin="round" stroke-width="1"/>
      <circle id="Ellipse_451" data-name="Ellipse 451" cx="2.096" cy="2.096" r="2.096" transform="translate(34.334 4.278)" fill="none" stroke="#63c6ff" stroke-linecap="round" stroke-linejoin="round" stroke-width="1"/>
      <circle id="Ellipse_452" data-name="Ellipse 452" cx="2.828" cy="2.828" r="2.828" transform="translate(21.249 1.598)" fill="none" stroke="#63c6ff" stroke-linecap="round" stroke-linejoin="round" stroke-width="1"/>
      <path id="Path_1124" data-name="Path 1124" d="M357.91,834.363l-2.221,1.282-2.221,1.282V831.8l2.221,1.282Z" transform="translate(-296.446 -790.549)" fill="none" stroke="#63c6ff" stroke-linecap="round" stroke-linejoin="round" stroke-width="1"/>
      <path id="Path_1125" data-name="Path 1125" d="M410.214,796.407l-1.425-2.467-1.425-2.467h5.7l-1.425,2.467Z" transform="translate(-330.094 -765.372)" fill="none" stroke="#63c6ff" stroke-linecap="round" stroke-linejoin="round" stroke-width="1"/>
      <g id="Group_1973" data-name="Group 1973" transform="translate(70.701 17.99)">
        <line id="Line_181" data-name="Line 181" y1="5.063" fill="none" stroke="#63c6ff" stroke-linecap="round" stroke-linejoin="round" stroke-width="1"/>
        <line id="Line_182" data-name="Line 182" y1="5.063" transform="translate(2.176)" fill="none" stroke="#63c6ff" stroke-linecap="round" stroke-linejoin="round" stroke-width="1"/>
      </g>
      <g id="Group_1976" data-name="Group 1976" transform="translate(75.09 46.749)">
        <g id="Group_1974" data-name="Group 1974">
          <rect id="Rectangle_2522" data-name="Rectangle 2522" width="1.176" height="1.176" rx="0.588" fill="none" stroke="#63c6ff" stroke-linecap="round" stroke-linejoin="round" stroke-width="1"/>
          <rect id="Rectangle_2523" data-name="Rectangle 2523" width="1.176" height="1.176" rx="0.588" transform="translate(4.046)" fill="none" stroke="#63c6ff" stroke-linecap="round" stroke-linejoin="round" stroke-width="1"/>
        </g>
        <g id="Group_1975" data-name="Group 1975" transform="translate(0 3.853)">
          <rect id="Rectangle_2524" data-name="Rectangle 2524" width="1.176" height="1.176" rx="0.588" fill="none" stroke="#63c6ff" stroke-linecap="round" stroke-linejoin="round" stroke-width="1"/>
          <rect id="Rectangle_2525" data-name="Rectangle 2525" width="1.176" height="1.176" rx="0.588" transform="translate(4.046)" fill="none" stroke="#63c6ff" stroke-linecap="round" stroke-linejoin="round" stroke-width="1"/>
        </g>
      </g>
      <g id="Group_1979" data-name="Group 1979" transform="translate(55.197 0)">
        <g id="Group_1977" data-name="Group 1977">
          <rect id="Rectangle_2526" data-name="Rectangle 2526" width="0.911" height="0.911" rx="0.456" fill="none" stroke="#63c6ff" stroke-linecap="round" stroke-linejoin="round" stroke-width="1"/>
          <rect id="Rectangle_2527" data-name="Rectangle 2527" width="0.911" height="0.911" rx="0.456" transform="translate(3.135)" fill="none" stroke="#63c6ff" stroke-linecap="round" stroke-linejoin="round" stroke-width="1"/>
        </g>
        <g id="Group_1978" data-name="Group 1978" transform="translate(0 2.985)">
          <rect id="Rectangle_2528" data-name="Rectangle 2528" width="0.911" height="0.911" rx="0.456" fill="none" stroke="#63c6ff" stroke-linecap="round" stroke-linejoin="round" stroke-width="1"/>
          <rect id="Rectangle_2529" data-name="Rectangle 2529" width="0.911" height="0.911" rx="0.456" transform="translate(3.135)" fill="none" stroke="#63c6ff" stroke-linecap="round" stroke-linejoin="round" stroke-width="1"/>
        </g>
      </g>
      <g id="Group_1980" data-name="Group 1980" transform="translate(0 14.939)">
        <line id="Line_183" data-name="Line 183" y2="3.052" transform="translate(1.526)" fill="none" stroke="#63c6ff" stroke-linecap="round" stroke-linejoin="round" stroke-width="1"/>
        <line id="Line_184" data-name="Line 184" x1="3.052" transform="translate(0 1.526)" fill="none" stroke="#63c6ff" stroke-linecap="round" stroke-linejoin="round" stroke-width="1"/>
      </g>
      <path id="Path_1126" data-name="Path 1126" d="M298.684,812.782a30.494,30.494,0,0,1-18.969,42.148" transform="translate(-250.4 -778.677)" fill="none" stroke="#63c6ff" stroke-linecap="round" stroke-linejoin="round" stroke-width="1" stroke-dasharray="3 4"/>
    </g>
  </g>
</svg>
