<svg xmlns="http://www.w3.org/2000/svg" width="30" height="30" viewBox="0 0 30 30"><defs><style>.a{fill:#fff;stroke:#cecece;}.b{fill:#a0a0a0;}.c{stroke:none;}.d{fill:none;}</style></defs><g transform="translate(-1165 -132)"><g class="a" transform="translate(1165 132)"><circle class="c" cx="15" cy="15" r="15"/><circle class="d" cx="15" cy="15" r="14.5"/></g><path class="b" d="M6.956,1.745A1.556,1.556,0,0,1,8.864.325l.261.066a1.377,1.377,0,0,1,1.012.964,9.368,9.368,0,0,1,.062,4.51q.221-.03.443-.05a6.4,6.4,0,0,1,2.516.21,2.074,2.074,0,0,1,1.2,1.273,1.9,1.9,0,0,1-.234,1.733,2.267,2.267,0,0,1,.138.363,3.3,3.3,0,0,1,0,1.712,2.083,2.083,0,0,1-.16.4,1.624,1.624,0,0,1,0,1.148,3.162,3.162,0,0,1-.488.9,1.4,1.4,0,0,1,.076.465,1.858,1.858,0,0,1-.253.912A2.157,2.157,0,0,1,11.5,16H8a4.4,4.4,0,0,1-1.466-.218,4.826,4.826,0,0,1-.97-.484l-.048-.03a4.291,4.291,0,0,0-2.068-.722A1.586,1.586,0,0,1,2,13V9A1.75,1.75,0,0,1,3.357,7.384a4.551,4.551,0,0,0,2.132-1.41A5.46,5.46,0,0,0,6.528,4.336a11.184,11.184,0,0,0,.428-2.59Z" transform="translate(1171.766 138.36)"/></g></svg>