<svg xmlns="http://www.w3.org/2000/svg" width="10.847" height="10.847" viewBox="0 0 10.847 10.847"><defs><style>.a{fill:#316eb4;}</style></defs><path class="a" d="M7.479,85.423l3.084-3.084a.969.969,0,0,0,0-1.371l-.685-.685a.969.969,0,0,0-1.371,0L5.423,83.367,2.34,80.284a.969.969,0,0,0-1.371,0l-.685.685a.969.969,0,0,0,0,1.371l3.084,3.084L.284,88.507a.969.969,0,0,0,0,1.371l.685.685a.969.969,0,0,0,1.371,0l3.084-3.084,3.084,3.084a.969.969,0,0,0,1.371,0l.685-.685a.969.969,0,0,0,0-1.371Z" transform="translate(0 -80)"/></svg>