<?xml version="1.0" encoding="utf-8"?>
<!-- Generator: Adobe Illustrator 25.1.0, SVG Export Plug-In . SVG Version: 6.00 Build 0)  -->
<svg version="1.1" id="Camada_1" xmlns="http://www.w3.org/2000/svg" xmlns:xlink="http://www.w3.org/1999/xlink" x="0px" y="0px"
	 viewBox="0 0 376.3 448" style="enable-background:new 0 0 376.3 448;" xml:space="preserve">
<style type="text/css">
	.st0{fill:#F6F6F6;}
	.st1{fill:#909090;}
	.st2{font-family:'OpenSans-Regular';}
	.st3{font-size:18.9625px;}
</style>
<g>
	<rect x="-3.5" y="-3.9" class="st0" width="384.1" height="456.8"/>
</g>
<g>
	<path class="st1" d="M207.9,182.1c0.4-1,0.6-2,0.6-3.1c0-4.8-3.9-8.7-8.7-8.7c-1.8,0-3.5,0.5-4.8,1.5c-2.5-4.4-7.2-7.3-12.6-7.3
		c-8,0-14.5,6.5-14.5,14.5c0,0.2,0,0.5,0,0.7c-5.1,1.8-8.7,6.6-8.7,12.3c0,7.2,5.9,13.1,13.1,13.1h33.4c6.4,0,11.6-5.2,11.6-11.6
		C217.2,187.8,213.2,183.2,207.9,182.1z M194.8,187.7h-5.9v10.2c0,0.8-0.7,1.5-1.5,1.5h-4.4c-0.8,0-1.5-0.7-1.5-1.5v-10.2h-5.9
		c-1.3,0-1.9-1.6-1-2.5l9.6-9.6c0.6-0.6,1.5-0.6,2.1,0l9.6,9.6C196.8,186.1,196.1,187.7,194.8,187.7L194.8,187.7z"/>
</g>
<text transform="matrix(1 0 0 1 58.608 255.675)"><tspan x="0" y="0" class="st1 st2 st3">The video will be available as  </tspan><tspan x="-4.7" y="22.8" class="st1 st2 st3">soon as we finish processing it</tspan></text>
</svg>
